<?xml version="1.0" encoding="UTF-8"?>
<!DOCTYPE svg PUBLIC "-//W3C//DTD SVG 1.1//EN" "http://www.w3.org/Graphics/SVG/1.1/DTD/svg11.dtd">
<svg xmlns="http://www.w3.org/2000/svg" version="1.1" width="256px" height="256px" style="shape-rendering:geometricPrecision; text-rendering:geometricPrecision; image-rendering:optimizeQuality; fill-rule:evenodd; clip-rule:evenodd" xmlns:xlink="http://www.w3.org/1999/xlink">
<g><path style="opacity:1" fill="#43213e" d="M -0.5,-0.5 C 16.8333,-0.5 34.1667,-0.5 51.5,-0.5C 51.5,0.833333 51.5,2.16667 51.5,3.5C 50.1667,3.5 48.8333,3.5 47.5,3.5C 47.5,4.83333 47.5,6.16667 47.5,7.5C 44.8333,7.5 42.1667,7.5 39.5,7.5C 39.5,8.83333 39.5,10.1667 39.5,11.5C 36.8333,11.5 34.1667,11.5 31.5,11.5C 31.5,12.8333 31.5,14.1667 31.5,15.5C 28.8333,15.5 26.1667,15.5 23.5,15.5C 23.5,16.8333 23.5,18.1667 23.5,19.5C 19.5,19.5 15.5,19.5 11.5,19.5C 11.5,20.8333 11.5,22.1667 11.5,23.5C 7.5,23.5 3.5,23.5 -0.5,23.5C -0.5,15.5 -0.5,7.5 -0.5,-0.5 Z"/></g>
<g><path style="opacity:1" fill="#2b1528" d="M 51.5,-0.5 C 72.8333,-0.5 94.1667,-0.5 115.5,-0.5C 115.5,0.833333 115.5,2.16667 115.5,3.5C 110.167,3.5 104.833,3.5 99.5,3.5C 99.5,4.83333 99.5,6.16667 99.5,7.5C 91.5,7.5 83.5,7.5 75.5,7.5C 75.5,8.83333 75.5,10.1667 75.5,11.5C 74.1667,11.5 72.8333,11.5 71.5,11.5C 71.5,10.1667 71.5,8.83333 71.5,7.5C 70.1667,7.5 68.8333,7.5 67.5,7.5C 67.5,6.16667 67.5,4.83333 67.5,3.5C 66.1667,3.5 64.8333,3.5 63.5,3.5C 63.5,4.83333 63.5,6.16667 63.5,7.5C 62.1667,7.5 60.8333,7.5 59.5,7.5C 59.5,8.83333 59.5,10.1667 59.5,11.5C 60.5,11.5 61.5,11.5 62.5,11.5C 62.5,12.8333 62.5,14.1667 62.5,15.5C 60.1667,15.5 57.8333,15.5 55.5,15.5C 55.5,18.1667 55.5,20.8333 55.5,23.5C 52.8333,23.5 50.1667,23.5 47.5,23.5C 47.5,24.8333 47.5,26.1667 47.5,27.5C 44.8333,27.5 42.1667,27.5 39.5,27.5C 39.5,28.8333 39.5,30.1667 39.5,31.5C 38.1667,31.5 36.8333,31.5 35.5,31.5C 35.5,32.8333 35.5,34.1667 35.5,35.5C 28.8333,35.5 22.1667,35.5 15.5,35.5C 15.5,36.8333 15.5,38.1667 15.5,39.5C 12.8333,39.5 10.1667,39.5 7.5,39.5C 7.5,40.8333 7.5,42.1667 7.5,43.5C 6.16667,43.5 4.83333,43.5 3.5,43.5C 3.5,44.8333 3.5,46.1667 3.5,47.5C 2.16667,47.5 0.833333,47.5 -0.5,47.5C -0.5,39.5 -0.5,31.5 -0.5,23.5C 3.5,23.5 7.5,23.5 11.5,23.5C 11.5,22.1667 11.5,20.8333 11.5,19.5C 15.5,19.5 19.5,19.5 23.5,19.5C 23.5,18.1667 23.5,16.8333 23.5,15.5C 26.1667,15.5 28.8333,15.5 31.5,15.5C 31.5,14.1667 31.5,12.8333 31.5,11.5C 34.1667,11.5 36.8333,11.5 39.5,11.5C 39.5,10.1667 39.5,8.83333 39.5,7.5C 42.1667,7.5 44.8333,7.5 47.5,7.5C 47.5,6.16667 47.5,4.83333 47.5,3.5C 48.8333,3.5 50.1667,3.5 51.5,3.5C 51.5,2.16667 51.5,0.833333 51.5,-0.5 Z"/></g>
<g><path style="opacity:1" fill="#150b13" d="M 115.5,-0.5 C 131.5,-0.5 147.5,-0.5 163.5,-0.5C 163.5,0.833333 163.5,2.16667 163.5,3.5C 164.833,3.5 166.167,3.5 167.5,3.5C 167.5,4.83333 167.5,6.16667 167.5,7.5C 174.167,7.5 180.833,7.5 187.5,7.5C 187.5,8.83333 187.5,10.1667 187.5,11.5C 191.5,11.5 195.5,11.5 199.5,11.5C 199.5,12.8333 199.5,14.1667 199.5,15.5C 201.833,15.5 204.167,15.5 206.5,15.5C 206.232,13.901 206.566,12.5676 207.5,11.5C 207.5,12.8333 207.5,14.1667 207.5,15.5C 208.833,15.5 210.167,15.5 211.5,15.5C 212.833,15.5 214.167,15.5 215.5,15.5C 215.5,16.8333 215.5,18.1667 215.5,19.5C 218.167,19.5 220.833,19.5 223.5,19.5C 223.5,20.8333 223.5,22.1667 223.5,23.5C 226.167,23.5 228.833,23.5 231.5,23.5C 231.5,24.8333 231.5,26.1667 231.5,27.5C 232.833,27.5 234.167,27.5 235.5,27.5C 235.5,28.8333 235.5,30.1667 235.5,31.5C 236.833,31.5 238.167,31.5 239.5,31.5C 239.5,34.1667 239.5,36.8333 239.5,39.5C 240.833,39.5 242.167,39.5 243.5,39.5C 243.5,43.5 243.5,47.5 243.5,51.5C 244.833,51.5 246.167,51.5 247.5,51.5C 247.5,64.8333 247.5,78.1667 247.5,91.5C 246.167,91.5 244.833,91.5 243.5,91.5C 243.5,94.1667 243.5,96.8333 243.5,99.5C 243.5,100.833 243.5,102.167 243.5,103.5C 242.167,103.5 240.833,103.5 239.5,103.5C 239.5,104.833 239.5,106.167 239.5,107.5C 240.833,107.5 242.167,107.5 243.5,107.5C 243.5,108.833 243.5,110.167 243.5,111.5C 244.833,111.5 246.167,111.5 247.5,111.5C 247.5,114.167 247.5,116.833 247.5,119.5C 248.833,119.5 250.167,119.5 251.5,119.5C 251.5,123.5 251.5,127.5 251.5,131.5C 250.167,131.5 248.833,131.5 247.5,131.5C 247.5,134.167 247.5,136.833 247.5,139.5C 246.167,139.5 244.833,139.5 243.5,139.5C 243.5,142.167 243.5,144.833 243.5,147.5C 242.167,147.5 240.833,147.5 239.5,147.5C 239.5,150.167 239.5,152.833 239.5,155.5C 238.167,155.5 236.833,155.5 235.5,155.5C 235.5,156.833 235.5,158.167 235.5,159.5C 236.833,159.5 238.167,159.5 239.5,159.5C 239.5,160.833 239.5,162.167 239.5,163.5C 240.833,163.5 242.167,163.5 243.5,163.5C 243.5,166.167 243.5,168.833 243.5,171.5C 244.833,171.5 246.167,171.5 247.5,171.5C 247.5,174.167 247.5,176.833 247.5,179.5C 248.833,179.5 250.167,179.5 251.5,179.5C 251.5,195.5 251.5,211.5 251.5,227.5C 250.167,227.5 248.833,227.5 247.5,227.5C 247.5,228.833 247.5,230.167 247.5,231.5C 246.167,231.5 244.833,231.5 243.5,231.5C 243.5,234.167 243.5,236.833 243.5,239.5C 242.5,239.5 241.5,239.5 240.5,239.5C 240.5,240.833 240.5,242.167 240.5,243.5C 239.566,242.432 239.232,241.099 239.5,239.5C 238.167,239.5 236.833,239.5 235.5,239.5C 235.5,238.167 235.5,236.833 235.5,235.5C 236.833,235.5 238.167,235.5 239.5,235.5C 239.5,231.5 239.5,227.5 239.5,223.5C 240.833,223.5 242.167,223.5 243.5,223.5C 243.5,210.167 243.5,196.833 243.5,183.5C 242.167,183.5 240.833,183.5 239.5,183.5C 239.5,180.833 239.5,178.167 239.5,175.5C 238.167,175.5 236.833,175.5 235.5,175.5C 235.5,172.833 235.5,170.167 235.5,167.5C 234.167,167.5 232.833,167.5 231.5,167.5C 231.5,166.167 231.5,164.833 231.5,163.5C 230.167,163.5 228.833,163.5 227.5,163.5C 227.5,160.833 227.5,158.167 227.5,155.5C 228.833,155.5 230.167,155.5 231.5,155.5C 231.5,152.833 231.5,150.167 231.5,147.5C 232.833,147.5 234.167,147.5 235.5,147.5C 235.5,146.167 235.5,144.833 235.5,143.5C 236.833,143.5 238.167,143.5 239.5,143.5C 239.5,140.833 239.5,138.167 239.5,135.5C 240.833,135.5 242.167,135.5 243.5,135.5C 243.5,130.167 243.5,124.833 243.5,119.5C 242.167,119.5 240.833,119.5 239.5,119.5C 239.5,116.833 239.5,114.167 239.5,111.5C 238.167,111.5 236.833,111.5 235.5,111.5C 235.5,110.167 235.5,108.833 235.5,107.5C 234.167,107.5 232.833,107.5 231.5,107.5C 231.5,100.833 231.5,94.1667 231.5,87.5C 232.833,87.5 234.167,87.5 235.5,87.5C 235.5,83.5 235.5,79.5 235.5,75.5C 236.833,75.5 238.167,75.5 239.5,75.5C 239.5,70.1667 239.5,64.8333 239.5,59.5C 238.167,59.5 236.833,59.5 235.5,59.5C 235.5,58.1667 235.5,56.8333 235.5,55.5C 234.167,55.5 232.833,55.5 231.5,55.5C 231.5,48.8333 231.5,42.1667 231.5,35.5C 230.167,35.5 228.833,35.5 227.5,35.5C 227.5,34.1667 227.5,32.8333 227.5,31.5C 226.167,31.5 224.833,31.5 223.5,31.5C 223.5,30.1667 223.5,28.8333 223.5,27.5C 222.167,27.5 220.833,27.5 219.5,27.5C 219.5,26.1667 219.5,24.8333 219.5,23.5C 207.5,23.5 195.5,23.5 183.5,23.5C 183.5,22.1667 183.5,20.8333 183.5,19.5C 182.167,19.5 180.833,19.5 179.5,19.5C 179.5,18.1667 179.5,16.8333 179.5,15.5C 175.5,15.5 171.5,15.5 167.5,15.5C 167.5,14.1667 167.5,12.8333 167.5,11.5C 163.5,11.5 159.5,11.5 155.5,11.5C 155.5,10.1667 155.5,8.83333 155.5,7.5C 139.5,7.5 123.5,7.5 107.5,7.5C 107.5,8.83333 107.5,10.1667 107.5,11.5C 98.1667,11.5 88.8333,11.5 79.5,11.5C 79.5,12.8333 79.5,14.1667 79.5,15.5C 76.8333,15.5 74.1667,15.5 71.5,15.5C 71.5,16.8333 71.5,18.1667 71.5,19.5C 68.8333,19.5 66.1667,19.5 63.5,19.5C 63.5,20.8333 63.5,22.1667 63.5,23.5C 62.1667,23.5 60.8333,23.5 59.5,23.5C 59.5,24.8333 59.5,26.1667 59.5,27.5C 58.1667,27.5 56.8333,27.5 55.5,27.5C 55.5,28.8333 55.5,30.1667 55.5,31.5C 52.8333,31.5 50.1667,31.5 47.5,31.5C 47.5,32.8333 47.5,34.1667 47.5,35.5C 46.1667,35.5 44.8333,35.5 43.5,35.5C 43.5,36.8333 43.5,38.1667 43.5,39.5C 42.1667,39.5 40.8333,39.5 39.5,39.5C 39.5,40.8333 39.5,42.1667 39.5,43.5C 30.1667,43.5 20.8333,43.5 11.5,43.5C 11.5,44.8333 11.5,46.1667 11.5,47.5C 10.1667,47.5 8.83333,47.5 7.5,47.5C 7.5,51.5 7.5,55.5 7.5,59.5C 6.16667,59.5 4.83333,59.5 3.5,59.5C 3.5,60.8333 3.5,62.1667 3.5,63.5C 4.83333,63.5 6.16667,63.5 7.5,63.5C 7.5,64.8333 7.5,66.1667 7.5,67.5C 8.83333,67.5 10.1667,67.5 11.5,67.5C 11.5,68.8333 11.5,70.1667 11.5,71.5C 10.1667,71.5 8.83333,71.5 7.5,71.5C 7.5,72.8333 7.5,74.1667 7.5,75.5C 6.16667,75.5 4.83333,75.5 3.5,75.5C 3.5,74.1667 3.5,72.8333 3.5,71.5C 2.16667,71.5 0.833333,71.5 -0.5,71.5C -0.5,63.5 -0.5,55.5 -0.5,47.5C 0.833333,47.5 2.16667,47.5 3.5,47.5C 3.5,46.1667 3.5,44.8333 3.5,43.5C 4.83333,43.5 6.16667,43.5 7.5,43.5C 7.5,42.1667 7.5,40.8333 7.5,39.5C 10.1667,39.5 12.8333,39.5 15.5,39.5C 15.5,38.1667 15.5,36.8333 15.5,35.5C 22.1667,35.5 28.8333,35.5 35.5,35.5C 35.5,34.1667 35.5,32.8333 35.5,31.5C 36.8333,31.5 38.1667,31.5 39.5,31.5C 39.5,30.1667 39.5,28.8333 39.5,27.5C 42.1667,27.5 44.8333,27.5 47.5,27.5C 47.5,26.1667 47.5,24.8333 47.5,23.5C 50.1667,23.5 52.8333,23.5 55.5,23.5C 55.5,20.8333 55.5,18.1667 55.5,15.5C 57.8333,15.5 60.1667,15.5 62.5,15.5C 62.5,14.1667 62.5,12.8333 62.5,11.5C 63.4345,12.5676 63.7678,13.901 63.5,15.5C 64.8333,15.5 66.1667,15.5 67.5,15.5C 67.5,14.1667 67.5,12.8333 67.5,11.5C 68.8333,11.5 70.1667,11.5 71.5,11.5C 72.8333,11.5 74.1667,11.5 75.5,11.5C 75.5,10.1667 75.5,8.83333 75.5,7.5C 83.5,7.5 91.5,7.5 99.5,7.5C 99.5,6.16667 99.5,4.83333 99.5,3.5C 104.833,3.5 110.167,3.5 115.5,3.5C 115.5,2.16667 115.5,0.833333 115.5,-0.5 Z"/></g>
<g><path style="opacity:1" fill="#43213e" d="M 211.5,-0.5 C 226.167,-0.5 240.833,-0.5 255.5,-0.5C 255.5,6.16667 255.5,12.8333 255.5,19.5C 254.167,19.5 252.833,19.5 251.5,19.5C 251.5,18.1667 251.5,16.8333 251.5,15.5C 248.833,15.5 246.167,15.5 243.5,15.5C 243.5,14.1667 243.5,12.8333 243.5,11.5C 240.833,11.5 238.167,11.5 235.5,11.5C 235.5,10.1667 235.5,8.83333 235.5,7.5C 230.167,7.5 224.833,7.5 219.5,7.5C 219.5,6.16667 219.5,4.83333 219.5,3.5C 216.833,3.5 214.167,3.5 211.5,3.5C 211.5,2.16667 211.5,0.833333 211.5,-0.5 Z"/></g>
<g><path style="opacity:1" fill="#f9f9f9" d="M 71.5,11.5 C 70.1667,11.5 68.8333,11.5 67.5,11.5C 67.5,12.8333 67.5,14.1667 67.5,15.5C 66.1667,15.5 64.8333,15.5 63.5,15.5C 63.7678,13.901 63.4345,12.5676 62.5,11.5C 61.5,11.5 60.5,11.5 59.5,11.5C 59.5,10.1667 59.5,8.83333 59.5,7.5C 60.8333,7.5 62.1667,7.5 63.5,7.5C 63.5,6.16667 63.5,4.83333 63.5,3.5C 64.8333,3.5 66.1667,3.5 67.5,3.5C 67.5,4.83333 67.5,6.16667 67.5,7.5C 68.8333,7.5 70.1667,7.5 71.5,7.5C 71.5,8.83333 71.5,10.1667 71.5,11.5 Z"/></g>
<g><path style="opacity:1" fill="#010100" d="M 235.5,239.5 C 235.5,240.833 235.5,242.167 235.5,243.5C 234.167,243.5 232.833,243.5 231.5,243.5C 231.5,244.833 231.5,246.167 231.5,247.5C 222.167,247.5 212.833,247.5 203.5,247.5C 203.5,248.833 203.5,250.167 203.5,251.5C 200.833,251.5 198.167,251.5 195.5,251.5C 195.5,250.167 195.5,248.833 195.5,247.5C 188.833,247.5 182.167,247.5 175.5,247.5C 175.5,246.167 175.5,244.833 175.5,243.5C 164.833,243.5 154.167,243.5 143.5,243.5C 143.5,242.167 143.5,240.833 143.5,239.5C 140.833,239.5 138.167,239.5 135.5,239.5C 135.5,238.167 135.5,236.833 135.5,235.5C 134.167,235.5 132.833,235.5 131.5,235.5C 131.5,234.167 131.5,232.833 131.5,231.5C 128.833,231.5 126.167,231.5 123.5,231.5C 123.5,230.167 123.5,228.833 123.5,227.5C 122.167,227.5 120.833,227.5 119.5,227.5C 119.5,228.833 119.5,230.167 119.5,231.5C 116.833,231.5 114.167,231.5 111.5,231.5C 111.5,232.833 111.5,234.167 111.5,235.5C 107.5,235.5 103.5,235.5 99.5,235.5C 99.5,236.833 99.5,238.167 99.5,239.5C 96.8333,239.5 94.1667,239.5 91.5,239.5C 91.5,240.833 91.5,242.167 91.5,243.5C 86.1667,243.5 80.8333,243.5 75.5,243.5C 75.5,244.833 75.5,246.167 75.5,247.5C 67.5,247.5 59.5,247.5 51.5,247.5C 51.5,246.167 51.5,244.833 51.5,243.5C 42.1667,243.5 32.8333,243.5 23.5,243.5C 23.5,242.167 23.5,240.833 23.5,239.5C 20.8333,239.5 18.1667,239.5 15.5,239.5C 15.5,238.167 15.5,236.833 15.5,235.5C 14.1667,235.5 12.8333,235.5 11.5,235.5C 11.5,226.167 11.5,216.833 11.5,207.5C 11.5,206.167 11.5,204.833 11.5,203.5C 12.8333,203.5 14.1667,203.5 15.5,203.5C 15.5,202.167 15.5,200.833 15.5,199.5C 14.1667,199.5 12.8333,199.5 11.5,199.5C 11.5,198.167 11.5,196.833 11.5,195.5C 10.1667,195.5 8.83333,195.5 7.5,195.5C 6.16667,195.5 4.83333,195.5 3.5,195.5C 3.5,186.167 3.5,176.833 3.5,167.5C 2.16667,167.5 0.833333,167.5 -0.5,167.5C -0.5,163.5 -0.5,159.5 -0.5,155.5C 0.833333,155.5 2.16667,155.5 3.5,155.5C 3.5,152.833 3.5,150.167 3.5,147.5C 4.83333,147.5 6.16667,147.5 7.5,147.5C 7.5,146.167 7.5,144.833 7.5,143.5C 10.1667,143.5 12.8333,143.5 15.5,143.5C 15.5,144.833 15.5,146.167 15.5,147.5C 16.8333,147.5 18.1667,147.5 19.5,147.5C 19.5,148.833 19.5,150.167 19.5,151.5C 20.8333,151.5 22.1667,151.5 23.5,151.5C 23.5,152.833 23.5,154.167 23.5,155.5C 26.1667,155.5 28.8333,155.5 31.5,155.5C 31.5,154.167 31.5,152.833 31.5,151.5C 31.5,150.167 31.5,148.833 31.5,147.5C 30.1667,147.5 28.8333,147.5 27.5,147.5C 27.5,146.167 27.5,144.833 27.5,143.5C 26.1667,143.5 24.8333,143.5 23.5,143.5C 23.5,131.5 23.5,119.5 23.5,107.5C 22.1667,107.5 20.8333,107.5 19.5,107.5C 19.5,99.5 19.5,91.5 19.5,83.5C 18.1667,83.5 16.8333,83.5 15.5,83.5C 15.5,82.1667 15.5,80.8333 15.5,79.5C 15.5,78.1667 15.5,76.8333 15.5,75.5C 14.1667,75.5 12.8333,75.5 11.5,75.5C 11.5,74.1667 11.5,72.8333 11.5,71.5C 11.5,70.1667 11.5,68.8333 11.5,67.5C 10.1667,67.5 8.83333,67.5 7.5,67.5C 7.5,66.1667 7.5,64.8333 7.5,63.5C 6.16667,63.5 4.83333,63.5 3.5,63.5C 3.5,62.1667 3.5,60.8333 3.5,59.5C 4.83333,59.5 6.16667,59.5 7.5,59.5C 7.5,55.5 7.5,51.5 7.5,47.5C 8.83333,47.5 10.1667,47.5 11.5,47.5C 11.5,46.1667 11.5,44.8333 11.5,43.5C 20.8333,43.5 30.1667,43.5 39.5,43.5C 39.5,42.1667 39.5,40.8333 39.5,39.5C 40.8333,39.5 42.1667,39.5 43.5,39.5C 43.5,38.1667 43.5,36.8333 43.5,35.5C 44.8333,35.5 46.1667,35.5 47.5,35.5C 47.5,34.1667 47.5,32.8333 47.5,31.5C 50.1667,31.5 52.8333,31.5 55.5,31.5C 55.5,30.1667 55.5,28.8333 55.5,27.5C 56.8333,27.5 58.1667,27.5 59.5,27.5C 59.5,26.1667 59.5,24.8333 59.5,23.5C 60.8333,23.5 62.1667,23.5 63.5,23.5C 63.5,22.1667 63.5,20.8333 63.5,19.5C 66.1667,19.5 68.8333,19.5 71.5,19.5C 71.5,18.1667 71.5,16.8333 71.5,15.5C 74.1667,15.5 76.8333,15.5 79.5,15.5C 79.5,14.1667 79.5,12.8333 79.5,11.5C 88.8333,11.5 98.1667,11.5 107.5,11.5C 107.5,10.1667 107.5,8.83333 107.5,7.5C 123.5,7.5 139.5,7.5 155.5,7.5C 155.5,8.83333 155.5,10.1667 155.5,11.5C 159.5,11.5 163.5,11.5 167.5,11.5C 167.5,12.8333 167.5,14.1667 167.5,15.5C 171.5,15.5 175.5,15.5 179.5,15.5C 179.5,16.8333 179.5,18.1667 179.5,19.5C 180.833,19.5 182.167,19.5 183.5,19.5C 183.5,20.8333 183.5,22.1667 183.5,23.5C 195.5,23.5 207.5,23.5 219.5,23.5C 219.5,24.8333 219.5,26.1667 219.5,27.5C 220.833,27.5 222.167,27.5 223.5,27.5C 223.5,28.8333 223.5,30.1667 223.5,31.5C 224.833,31.5 226.167,31.5 227.5,31.5C 227.5,32.8333 227.5,34.1667 227.5,35.5C 228.833,35.5 230.167,35.5 231.5,35.5C 231.5,42.1667 231.5,48.8333 231.5,55.5C 232.833,55.5 234.167,55.5 235.5,55.5C 235.5,56.8333 235.5,58.1667 235.5,59.5C 236.833,59.5 238.167,59.5 239.5,59.5C 239.5,64.8333 239.5,70.1667 239.5,75.5C 238.167,75.5 236.833,75.5 235.5,75.5C 235.5,79.5 235.5,83.5 235.5,87.5C 234.167,87.5 232.833,87.5 231.5,87.5C 231.5,94.1667 231.5,100.833 231.5,107.5C 232.833,107.5 234.167,107.5 235.5,107.5C 235.5,108.833 235.5,110.167 235.5,111.5C 236.833,111.5 238.167,111.5 239.5,111.5C 239.5,114.167 239.5,116.833 239.5,119.5C 240.833,119.5 242.167,119.5 243.5,119.5C 243.5,124.833 243.5,130.167 243.5,135.5C 242.167,135.5 240.833,135.5 239.5,135.5C 239.5,138.167 239.5,140.833 239.5,143.5C 238.167,143.5 236.833,143.5 235.5,143.5C 235.5,144.833 235.5,146.167 235.5,147.5C 234.167,147.5 232.833,147.5 231.5,147.5C 231.5,150.167 231.5,152.833 231.5,155.5C 230.167,155.5 228.833,155.5 227.5,155.5C 227.5,158.167 227.5,160.833 227.5,163.5C 228.833,163.5 230.167,163.5 231.5,163.5C 231.5,164.833 231.5,166.167 231.5,167.5C 232.833,167.5 234.167,167.5 235.5,167.5C 235.5,170.167 235.5,172.833 235.5,175.5C 236.833,175.5 238.167,175.5 239.5,175.5C 239.5,178.167 239.5,180.833 239.5,183.5C 240.833,183.5 242.167,183.5 243.5,183.5C 243.5,196.833 243.5,210.167 243.5,223.5C 242.167,223.5 240.833,223.5 239.5,223.5C 239.5,227.5 239.5,231.5 239.5,235.5C 238.167,235.5 236.833,235.5 235.5,235.5C 235.5,236.833 235.5,238.167 235.5,239.5 Z"/></g>
<g><path style="opacity:1" fill="#281325" d="M 163.5,-0.5 C 179.5,-0.5 195.5,-0.5 211.5,-0.5C 211.5,0.833333 211.5,2.16667 211.5,3.5C 214.167,3.5 216.833,3.5 219.5,3.5C 219.5,4.83333 219.5,6.16667 219.5,7.5C 224.833,7.5 230.167,7.5 235.5,7.5C 235.5,8.83333 235.5,10.1667 235.5,11.5C 238.167,11.5 240.833,11.5 243.5,11.5C 243.5,12.8333 243.5,14.1667 243.5,15.5C 246.167,15.5 248.833,15.5 251.5,15.5C 251.5,16.8333 251.5,18.1667 251.5,19.5C 252.833,19.5 254.167,19.5 255.5,19.5C 255.5,98.1667 255.5,176.833 255.5,255.5C 248.833,255.5 242.167,255.5 235.5,255.5C 235.5,254.167 235.5,252.833 235.5,251.5C 236.833,251.5 238.167,251.5 239.5,251.5C 239.5,250.167 239.5,248.833 239.5,247.5C 240.833,247.5 242.167,247.5 243.5,247.5C 243.5,246.167 243.5,244.833 243.5,243.5C 242.5,243.5 241.5,243.5 240.5,243.5C 240.5,242.167 240.5,240.833 240.5,239.5C 241.5,239.5 242.5,239.5 243.5,239.5C 243.5,236.833 243.5,234.167 243.5,231.5C 244.833,231.5 246.167,231.5 247.5,231.5C 247.5,230.167 247.5,228.833 247.5,227.5C 248.833,227.5 250.167,227.5 251.5,227.5C 251.5,211.5 251.5,195.5 251.5,179.5C 250.167,179.5 248.833,179.5 247.5,179.5C 247.5,176.833 247.5,174.167 247.5,171.5C 246.167,171.5 244.833,171.5 243.5,171.5C 243.5,168.833 243.5,166.167 243.5,163.5C 242.167,163.5 240.833,163.5 239.5,163.5C 239.5,162.167 239.5,160.833 239.5,159.5C 239.5,158.167 239.5,156.833 239.5,155.5C 239.5,152.833 239.5,150.167 239.5,147.5C 240.833,147.5 242.167,147.5 243.5,147.5C 243.5,144.833 243.5,142.167 243.5,139.5C 244.833,139.5 246.167,139.5 247.5,139.5C 247.5,136.833 247.5,134.167 247.5,131.5C 248.833,131.5 250.167,131.5 251.5,131.5C 251.5,127.5 251.5,123.5 251.5,119.5C 250.167,119.5 248.833,119.5 247.5,119.5C 247.5,116.833 247.5,114.167 247.5,111.5C 247.5,110.167 247.5,108.833 247.5,107.5C 248.833,107.5 250.167,107.5 251.5,107.5C 251.5,106.167 251.5,104.833 251.5,103.5C 250.167,103.5 248.833,103.5 247.5,103.5C 247.5,102.167 247.5,100.833 247.5,99.5C 246.167,99.5 244.833,99.5 243.5,99.5C 243.5,96.8333 243.5,94.1667 243.5,91.5C 244.833,91.5 246.167,91.5 247.5,91.5C 247.5,78.1667 247.5,64.8333 247.5,51.5C 246.167,51.5 244.833,51.5 243.5,51.5C 243.5,47.5 243.5,43.5 243.5,39.5C 242.167,39.5 240.833,39.5 239.5,39.5C 239.5,36.8333 239.5,34.1667 239.5,31.5C 238.167,31.5 236.833,31.5 235.5,31.5C 235.5,30.1667 235.5,28.8333 235.5,27.5C 234.167,27.5 232.833,27.5 231.5,27.5C 231.5,26.1667 231.5,24.8333 231.5,23.5C 228.833,23.5 226.167,23.5 223.5,23.5C 223.5,22.1667 223.5,20.8333 223.5,19.5C 220.833,19.5 218.167,19.5 215.5,19.5C 215.5,18.1667 215.5,16.8333 215.5,15.5C 214.167,15.5 212.833,15.5 211.5,15.5C 210.167,15.5 208.833,15.5 207.5,15.5C 207.5,14.1667 207.5,12.8333 207.5,11.5C 206.566,12.5676 206.232,13.901 206.5,15.5C 204.167,15.5 201.833,15.5 199.5,15.5C 199.5,14.1667 199.5,12.8333 199.5,11.5C 195.5,11.5 191.5,11.5 187.5,11.5C 187.5,10.1667 187.5,8.83333 187.5,7.5C 180.833,7.5 174.167,7.5 167.5,7.5C 167.5,6.16667 167.5,4.83333 167.5,3.5C 166.167,3.5 164.833,3.5 163.5,3.5C 163.5,2.16667 163.5,0.833333 163.5,-0.5 Z"/></g>
<g><path style="opacity:1" fill="#fbfbfb" d="M 207.5,11.5 C 208.833,11.5 210.167,11.5 211.5,11.5C 211.5,12.8333 211.5,14.1667 211.5,15.5C 211.5,14.1667 211.5,12.8333 211.5,11.5C 210.167,11.5 208.833,11.5 207.5,11.5 Z"/></g>
<g><path style="opacity:1" fill="#f7cd00" d="M 135.5,15.5 C 135.5,16.8333 135.5,18.1667 135.5,19.5C 136.833,19.5 138.167,19.5 139.5,19.5C 139.5,20.8333 139.5,22.1667 139.5,23.5C 140.833,23.5 142.167,23.5 143.5,23.5C 143.5,24.8333 143.5,26.1667 143.5,27.5C 144.833,27.5 146.167,27.5 147.5,27.5C 147.5,28.8333 147.5,30.1667 147.5,31.5C 148.833,31.5 150.167,31.5 151.5,31.5C 151.5,32.8333 151.5,34.1667 151.5,35.5C 152.833,35.5 154.167,35.5 155.5,35.5C 155.5,36.8333 155.5,38.1667 155.5,39.5C 156.833,39.5 158.167,39.5 159.5,39.5C 159.5,40.8333 159.5,42.1667 159.5,43.5C 160.833,43.5 162.167,43.5 163.5,43.5C 163.5,44.8333 163.5,46.1667 163.5,47.5C 162.167,47.5 160.833,47.5 159.5,47.5C 159.5,51.5 159.5,55.5 159.5,59.5C 158.167,59.5 156.833,59.5 155.5,59.5C 155.5,56.8333 155.5,54.1667 155.5,51.5C 154.167,51.5 152.833,51.5 151.5,51.5C 151.5,48.8333 151.5,46.1667 151.5,43.5C 150.167,43.5 148.833,43.5 147.5,43.5C 147.5,42.1667 147.5,40.8333 147.5,39.5C 144.833,39.5 142.167,39.5 139.5,39.5C 139.5,38.1667 139.5,36.8333 139.5,35.5C 138.167,35.5 136.833,35.5 135.5,35.5C 135.5,32.8333 135.5,30.1667 135.5,27.5C 134.167,27.5 132.833,27.5 131.5,27.5C 131.5,26.1667 131.5,24.8333 131.5,23.5C 130.167,23.5 128.833,23.5 127.5,23.5C 127.5,22.1667 127.5,20.8333 127.5,19.5C 126.167,19.5 124.833,19.5 123.5,19.5C 123.5,18.1667 123.5,16.8333 123.5,15.5C 127.5,15.5 131.5,15.5 135.5,15.5 Z"/></g>
<g><path style="opacity:1" fill="#fdef01" d="M 135.5,15.5 C 139.5,15.5 143.5,15.5 147.5,15.5C 147.5,16.8333 147.5,18.1667 147.5,19.5C 152.833,19.5 158.167,19.5 163.5,19.5C 163.5,20.8333 163.5,22.1667 163.5,23.5C 166.167,23.5 168.833,23.5 171.5,23.5C 171.5,24.8333 171.5,26.1667 171.5,27.5C 174.167,27.5 176.833,27.5 179.5,27.5C 179.5,28.8333 179.5,30.1667 179.5,31.5C 180.833,31.5 182.167,31.5 183.5,31.5C 183.5,32.8333 183.5,34.1667 183.5,35.5C 184.833,35.5 186.167,35.5 187.5,35.5C 187.5,36.8333 187.5,38.1667 187.5,39.5C 190.167,39.5 192.833,39.5 195.5,39.5C 195.5,40.8333 195.5,42.1667 195.5,43.5C 196.833,43.5 198.167,43.5 199.5,43.5C 199.5,46.1667 199.5,48.8333 199.5,51.5C 200.833,51.5 202.167,51.5 203.5,51.5C 203.5,52.8333 203.5,54.1667 203.5,55.5C 204.833,55.5 206.167,55.5 207.5,55.5C 207.5,56.8333 207.5,58.1667 207.5,59.5C 208.833,59.5 210.167,59.5 211.5,59.5C 211.5,62.1667 211.5,64.8333 211.5,67.5C 210.167,67.5 208.833,67.5 207.5,67.5C 207.5,70.1667 207.5,72.8333 207.5,75.5C 206.167,75.5 204.833,75.5 203.5,75.5C 203.5,76.8333 203.5,78.1667 203.5,79.5C 206.167,79.5 208.833,79.5 211.5,79.5C 211.5,80.8333 211.5,82.1667 211.5,83.5C 212.833,83.5 214.167,83.5 215.5,83.5C 215.5,84.8333 215.5,86.1667 215.5,87.5C 216.833,87.5 218.167,87.5 219.5,87.5C 219.5,90.1667 219.5,92.8333 219.5,95.5C 218.167,95.5 216.833,95.5 215.5,95.5C 214.167,95.5 212.833,95.5 211.5,95.5C 211.5,94.1667 211.5,92.8333 211.5,91.5C 210.167,91.5 208.833,91.5 207.5,91.5C 207.5,90.1667 207.5,88.8333 207.5,87.5C 206.167,87.5 204.833,87.5 203.5,87.5C 203.5,86.1667 203.5,84.8333 203.5,83.5C 202.167,83.5 200.833,83.5 199.5,83.5C 199.5,82.1667 199.5,80.8333 199.5,79.5C 198.167,79.5 196.833,79.5 195.5,79.5C 195.5,78.1667 195.5,76.8333 195.5,75.5C 194.167,75.5 192.833,75.5 191.5,75.5C 191.5,74.1667 191.5,72.8333 191.5,71.5C 190.167,71.5 188.833,71.5 187.5,71.5C 187.5,70.1667 187.5,68.8333 187.5,67.5C 186.167,67.5 184.833,67.5 183.5,67.5C 183.5,66.1667 183.5,64.8333 183.5,63.5C 182.167,63.5 180.833,63.5 179.5,63.5C 179.5,62.1667 179.5,60.8333 179.5,59.5C 178.167,59.5 176.833,59.5 175.5,59.5C 175.5,56.8333 175.5,54.1667 175.5,51.5C 172.833,51.5 170.167,51.5 167.5,51.5C 167.5,50.1667 167.5,48.8333 167.5,47.5C 166.167,47.5 164.833,47.5 163.5,47.5C 163.5,46.1667 163.5,44.8333 163.5,43.5C 162.167,43.5 160.833,43.5 159.5,43.5C 159.5,42.1667 159.5,40.8333 159.5,39.5C 158.167,39.5 156.833,39.5 155.5,39.5C 155.5,38.1667 155.5,36.8333 155.5,35.5C 154.167,35.5 152.833,35.5 151.5,35.5C 151.5,34.1667 151.5,32.8333 151.5,31.5C 150.167,31.5 148.833,31.5 147.5,31.5C 147.5,30.1667 147.5,28.8333 147.5,27.5C 146.167,27.5 144.833,27.5 143.5,27.5C 143.5,26.1667 143.5,24.8333 143.5,23.5C 142.167,23.5 140.833,23.5 139.5,23.5C 139.5,22.1667 139.5,20.8333 139.5,19.5C 138.167,19.5 136.833,19.5 135.5,19.5C 135.5,18.1667 135.5,16.8333 135.5,15.5 Z"/></g>
<g><path style="opacity:1" fill="#f8cd00" d="M 87.5,71.5 C 87.5,67.5 87.5,63.5 87.5,59.5C 88.8333,59.5 90.1667,59.5 91.5,59.5C 91.5,55.5 91.5,51.5 91.5,47.5C 87.5,47.5 83.5,47.5 79.5,47.5C 79.5,48.8333 79.5,50.1667 79.5,51.5C 76.8333,51.5 74.1667,51.5 71.5,51.5C 71.5,55.5 71.5,59.5 71.5,63.5C 72.8333,63.5 74.1667,63.5 75.5,63.5C 75.5,67.5 75.5,71.5 75.5,75.5C 74.1667,75.5 72.8333,75.5 71.5,75.5C 71.5,74.1667 71.5,72.8333 71.5,71.5C 70.1667,71.5 68.8333,71.5 67.5,71.5C 67.5,70.1667 67.5,68.8333 67.5,67.5C 66.1667,67.5 64.8333,67.5 63.5,67.5C 63.5,66.1667 63.5,64.8333 63.5,63.5C 62.1667,63.5 60.8333,63.5 59.5,63.5C 59.5,62.1667 59.5,60.8333 59.5,59.5C 58.1667,59.5 56.8333,59.5 55.5,59.5C 55.5,58.1667 55.5,56.8333 55.5,55.5C 54.1667,55.5 52.8333,55.5 51.5,55.5C 51.5,54.1667 51.5,52.8333 51.5,51.5C 52.8333,51.5 54.1667,51.5 55.5,51.5C 55.5,48.8333 55.5,46.1667 55.5,43.5C 56.8333,43.5 58.1667,43.5 59.5,43.5C 59.5,42.1667 59.5,40.8333 59.5,39.5C 62.1667,39.5 64.8333,39.5 67.5,39.5C 67.5,38.1667 67.5,36.8333 67.5,35.5C 68.8333,35.5 70.1667,35.5 71.5,35.5C 71.5,36.8333 71.5,38.1667 71.5,39.5C 74.1667,39.5 76.8333,39.5 79.5,39.5C 79.5,35.5 79.5,31.5 79.5,27.5C 80.8333,27.5 82.1667,27.5 83.5,27.5C 83.5,26.1667 83.5,24.8333 83.5,23.5C 86.1667,23.5 88.8333,23.5 91.5,23.5C 91.5,22.1667 91.5,20.8333 91.5,19.5C 95.5,19.5 99.5,19.5 103.5,19.5C 103.5,20.8333 103.5,22.1667 103.5,23.5C 106.167,23.5 108.833,23.5 111.5,23.5C 111.5,24.8333 111.5,26.1667 111.5,27.5C 112.833,27.5 114.167,27.5 115.5,27.5C 115.5,28.8333 115.5,30.1667 115.5,31.5C 116.833,31.5 118.167,31.5 119.5,31.5C 119.5,32.8333 119.5,34.1667 119.5,35.5C 120.833,35.5 122.167,35.5 123.5,35.5C 123.5,38.1667 123.5,40.8333 123.5,43.5C 120.833,43.5 118.167,43.5 115.5,43.5C 115.5,44.8333 115.5,46.1667 115.5,47.5C 112.833,47.5 110.167,47.5 107.5,47.5C 107.5,48.8333 107.5,50.1667 107.5,51.5C 106.167,51.5 104.833,51.5 103.5,51.5C 103.5,52.8333 103.5,54.1667 103.5,55.5C 102.167,55.5 100.833,55.5 99.5,55.5C 99.5,56.8333 99.5,58.1667 99.5,59.5C 98.1667,59.5 96.8333,59.5 95.5,59.5C 95.5,62.1667 95.5,64.8333 95.5,67.5C 94.1667,67.5 92.8333,67.5 91.5,67.5C 91.5,70.1667 91.5,72.8333 91.5,75.5C 90.1667,75.5 88.8333,75.5 87.5,75.5C 87.5,74.1667 87.5,72.8333 87.5,71.5 Z"/></g>
<g><path style="opacity:1" fill="#f4ea01" d="M 215.5,35.5 C 216.833,35.5 218.167,35.5 219.5,35.5C 219.5,36.8333 219.5,38.1667 219.5,39.5C 220.833,39.5 222.167,39.5 223.5,39.5C 223.5,40.8333 223.5,42.1667 223.5,43.5C 220.833,43.5 218.167,43.5 215.5,43.5C 215.5,40.8333 215.5,38.1667 215.5,35.5 Z"/></g>
<g><path style="opacity:1" fill="#f7a300" d="M 87.5,59.5 C 87.5,56.8333 87.5,54.1667 87.5,51.5C 84.8333,51.5 82.1667,51.5 79.5,51.5C 79.5,50.1667 79.5,48.8333 79.5,47.5C 83.5,47.5 87.5,47.5 91.5,47.5C 91.5,51.5 91.5,55.5 91.5,59.5C 90.1667,59.5 88.8333,59.5 87.5,59.5 Z"/></g>
<g><path style="opacity:1" fill="#030200" d="M 163.5,47.5 C 164.833,47.5 166.167,47.5 167.5,47.5C 167.5,48.8333 167.5,50.1667 167.5,51.5C 170.167,51.5 172.833,51.5 175.5,51.5C 175.5,54.1667 175.5,56.8333 175.5,59.5C 175.5,62.1667 175.5,64.8333 175.5,67.5C 174.167,67.5 172.833,67.5 171.5,67.5C 171.5,66.1667 171.5,64.8333 171.5,63.5C 170.167,63.5 168.833,63.5 167.5,63.5C 167.5,60.8333 167.5,58.1667 167.5,55.5C 166.167,55.5 164.833,55.5 163.5,55.5C 163.5,52.8333 163.5,50.1667 163.5,47.5 Z"/></g>
<g><path style="opacity:1" fill="#f69e00" d="M 163.5,47.5 C 163.5,50.1667 163.5,52.8333 163.5,55.5C 164.833,55.5 166.167,55.5 167.5,55.5C 167.5,58.1667 167.5,60.8333 167.5,63.5C 168.833,63.5 170.167,63.5 171.5,63.5C 171.5,64.8333 171.5,66.1667 171.5,67.5C 172.833,67.5 174.167,67.5 175.5,67.5C 175.5,68.8333 175.5,70.1667 175.5,71.5C 172.833,71.5 170.167,71.5 167.5,71.5C 167.5,70.1667 167.5,68.8333 167.5,67.5C 166.167,67.5 164.833,67.5 163.5,67.5C 163.5,64.8333 163.5,62.1667 163.5,59.5C 162.167,59.5 160.833,59.5 159.5,59.5C 159.5,55.5 159.5,51.5 159.5,47.5C 160.833,47.5 162.167,47.5 163.5,47.5 Z"/></g>
<g><path style="opacity:1" fill="#f6a400" d="M 79.5,51.5 C 79.5,52.8333 79.5,54.1667 79.5,55.5C 78.1667,55.5 76.8333,55.5 75.5,55.5C 75.5,58.1667 75.5,60.8333 75.5,63.5C 74.1667,63.5 72.8333,63.5 71.5,63.5C 71.5,59.5 71.5,55.5 71.5,51.5C 74.1667,51.5 76.8333,51.5 79.5,51.5 Z"/></g>
<g><path style="opacity:1" fill="#ededed" d="M 35.5,51.5 C 36.8333,51.5 38.1667,51.5 39.5,51.5C 39.5,52.8333 39.5,54.1667 39.5,55.5C 38.1667,55.5 36.8333,55.5 35.5,55.5C 35.5,54.1667 35.5,52.8333 35.5,51.5 Z"/></g>
<g><path style="opacity:1" fill="#040200" d="M 79.5,51.5 C 82.1667,51.5 84.8333,51.5 87.5,51.5C 87.5,54.1667 87.5,56.8333 87.5,59.5C 86.1667,59.5 84.8333,59.5 83.5,59.5C 83.5,60.8333 83.5,62.1667 83.5,63.5C 80.8333,63.5 78.1667,63.5 75.5,63.5C 75.5,60.8333 75.5,58.1667 75.5,55.5C 76.8333,55.5 78.1667,55.5 79.5,55.5C 79.5,54.1667 79.5,52.8333 79.5,51.5 Z"/></g>
<g><path style="opacity:1" fill="#feef01" d="M 51.5,55.5 C 52.8333,55.5 54.1667,55.5 55.5,55.5C 55.5,56.8333 55.5,58.1667 55.5,59.5C 56.8333,59.5 58.1667,59.5 59.5,59.5C 59.5,60.8333 59.5,62.1667 59.5,63.5C 60.8333,63.5 62.1667,63.5 63.5,63.5C 63.5,64.8333 63.5,66.1667 63.5,67.5C 64.8333,67.5 66.1667,67.5 67.5,67.5C 67.5,68.8333 67.5,70.1667 67.5,71.5C 68.8333,71.5 70.1667,71.5 71.5,71.5C 71.5,72.8333 71.5,74.1667 71.5,75.5C 72.8333,75.5 74.1667,75.5 75.5,75.5C 75.5,76.8333 75.5,78.1667 75.5,79.5C 76.8333,79.5 78.1667,79.5 79.5,79.5C 79.5,80.8333 79.5,82.1667 79.5,83.5C 80.8333,83.5 82.1667,83.5 83.5,83.5C 83.5,96.8333 83.5,110.167 83.5,123.5C 82.1667,123.5 80.8333,123.5 79.5,123.5C 78.1667,123.5 76.8333,123.5 75.5,123.5C 75.5,122.167 75.5,120.833 75.5,119.5C 74.1667,119.5 72.8333,119.5 71.5,119.5C 71.5,118.167 71.5,116.833 71.5,115.5C 70.1667,115.5 68.8333,115.5 67.5,115.5C 67.5,114.167 67.5,112.833 67.5,111.5C 66.1667,111.5 64.8333,111.5 63.5,111.5C 63.5,110.167 63.5,108.833 63.5,107.5C 62.1667,107.5 60.8333,107.5 59.5,107.5C 59.5,106.167 59.5,104.833 59.5,103.5C 58.1667,103.5 56.8333,103.5 55.5,103.5C 55.5,102.167 55.5,100.833 55.5,99.5C 54.1667,99.5 52.8333,99.5 51.5,99.5C 51.5,98.1667 51.5,96.8333 51.5,95.5C 50.1667,95.5 48.8333,95.5 47.5,95.5C 47.5,94.1667 47.5,92.8333 47.5,91.5C 46.1667,91.5 44.8333,91.5 43.5,91.5C 43.5,90.1667 43.5,88.8333 43.5,87.5C 46.1667,87.5 48.8333,87.5 51.5,87.5C 51.5,84.8333 51.5,82.1667 51.5,79.5C 50.1667,79.5 48.8333,79.5 47.5,79.5C 47.5,74.1667 47.5,68.8333 47.5,63.5C 46.1667,63.5 44.8333,63.5 43.5,63.5C 43.5,62.1667 43.5,60.8333 43.5,59.5C 44.8333,59.5 46.1667,59.5 47.5,59.5C 47.5,58.1667 47.5,56.8333 47.5,55.5C 48.8333,55.5 50.1667,55.5 51.5,55.5 Z"/></g>
<g><path style="opacity:1" fill="#fbed01" d="M 15.5,55.5 C 16.8333,55.5 18.1667,55.5 19.5,55.5C 19.5,56.8333 19.5,58.1667 19.5,59.5C 23.5,59.5 27.5,59.5 31.5,59.5C 31.5,60.8333 31.5,62.1667 31.5,63.5C 32.8333,63.5 34.1667,63.5 35.5,63.5C 35.5,64.8333 35.5,66.1667 35.5,67.5C 36.8333,67.5 38.1667,67.5 39.5,67.5C 39.5,68.8333 39.5,70.1667 39.5,71.5C 38.1667,71.5 36.8333,71.5 35.5,71.5C 35.5,74.1667 35.5,76.8333 35.5,79.5C 32.8333,79.5 30.1667,79.5 27.5,79.5C 27.5,76.8333 27.5,74.1667 27.5,71.5C 26.1667,71.5 24.8333,71.5 23.5,71.5C 23.5,70.1667 23.5,68.8333 23.5,67.5C 22.1667,67.5 20.8333,67.5 19.5,67.5C 19.5,66.1667 19.5,64.8333 19.5,63.5C 18.1667,63.5 16.8333,63.5 15.5,63.5C 15.5,60.8333 15.5,58.1667 15.5,55.5 Z"/></g>
<g><path style="opacity:1" fill="#f6c300" d="M 135.5,55.5 C 138.167,55.5 140.833,55.5 143.5,55.5C 143.5,56.8333 143.5,58.1667 143.5,59.5C 144.833,59.5 146.167,59.5 147.5,59.5C 147.5,62.1667 147.5,64.8333 147.5,67.5C 144.833,67.5 142.167,67.5 139.5,67.5C 139.5,66.1667 139.5,64.8333 139.5,63.5C 138.167,63.5 136.833,63.5 135.5,63.5C 135.5,60.8333 135.5,58.1667 135.5,55.5 Z"/></g>
<g><path style="opacity:1" fill="#f7cf00" d="M 159.5,59.5 C 160.833,59.5 162.167,59.5 163.5,59.5C 163.5,62.1667 163.5,64.8333 163.5,67.5C 162.167,67.5 160.833,67.5 159.5,67.5C 159.5,64.8333 159.5,62.1667 159.5,59.5 Z"/></g>
<g><path style="opacity:1" fill="#f9a700" d="M 175.5,59.5 C 176.833,59.5 178.167,59.5 179.5,59.5C 179.5,60.8333 179.5,62.1667 179.5,63.5C 179.5,64.8333 179.5,66.1667 179.5,67.5C 178.167,67.5 176.833,67.5 175.5,67.5C 175.5,64.8333 175.5,62.1667 175.5,59.5 Z"/></g>
<g><path style="opacity:1" fill="#f8cd00" d="M 179.5,63.5 C 180.833,63.5 182.167,63.5 183.5,63.5C 183.5,64.8333 183.5,66.1667 183.5,67.5C 184.833,67.5 186.167,67.5 187.5,67.5C 187.5,68.8333 187.5,70.1667 187.5,71.5C 188.833,71.5 190.167,71.5 191.5,71.5C 191.5,72.8333 191.5,74.1667 191.5,75.5C 192.833,75.5 194.167,75.5 195.5,75.5C 195.5,76.8333 195.5,78.1667 195.5,79.5C 196.833,79.5 198.167,79.5 199.5,79.5C 199.5,80.8333 199.5,82.1667 199.5,83.5C 200.833,83.5 202.167,83.5 203.5,83.5C 203.5,84.8333 203.5,86.1667 203.5,87.5C 204.833,87.5 206.167,87.5 207.5,87.5C 207.5,88.8333 207.5,90.1667 207.5,91.5C 208.833,91.5 210.167,91.5 211.5,91.5C 211.5,92.8333 211.5,94.1667 211.5,95.5C 211.5,96.8333 211.5,98.1667 211.5,99.5C 208.833,99.5 206.167,99.5 203.5,99.5C 203.5,100.833 203.5,102.167 203.5,103.5C 202.167,103.5 200.833,103.5 199.5,103.5C 199.5,107.5 199.5,111.5 199.5,115.5C 198.167,115.5 196.833,115.5 195.5,115.5C 195.5,120.833 195.5,126.167 195.5,131.5C 196.833,131.5 198.167,131.5 199.5,131.5C 199.5,132.833 199.5,134.167 199.5,135.5C 202.167,135.5 204.833,135.5 207.5,135.5C 207.5,136.833 207.5,138.167 207.5,139.5C 208.833,139.5 210.167,139.5 211.5,139.5C 211.5,140.833 211.5,142.167 211.5,143.5C 212.833,143.5 214.167,143.5 215.5,143.5C 215.5,144.833 215.5,146.167 215.5,147.5C 215.5,150.167 215.5,152.833 215.5,155.5C 214.167,155.5 212.833,155.5 211.5,155.5C 211.5,158.167 211.5,160.833 211.5,163.5C 210.167,163.5 208.833,163.5 207.5,163.5C 207.5,164.833 207.5,166.167 207.5,167.5C 206.167,167.5 204.833,167.5 203.5,167.5C 203.5,168.833 203.5,170.167 203.5,171.5C 202.167,171.5 200.833,171.5 199.5,171.5C 199.5,174.167 199.5,176.833 199.5,179.5C 198.167,179.5 196.833,179.5 195.5,179.5C 195.5,180.833 195.5,182.167 195.5,183.5C 192.833,183.5 190.167,183.5 187.5,183.5C 187.5,184.833 187.5,186.167 187.5,187.5C 186.167,187.5 184.833,187.5 183.5,187.5C 183.5,186.167 183.5,184.833 183.5,183.5C 182.167,183.5 180.833,183.5 179.5,183.5C 179.5,182.167 179.5,180.833 179.5,179.5C 178.167,179.5 176.833,179.5 175.5,179.5C 175.5,178.167 175.5,176.833 175.5,175.5C 174.167,175.5 172.833,175.5 171.5,175.5C 171.5,174.167 171.5,172.833 171.5,171.5C 170.167,171.5 168.833,171.5 167.5,171.5C 167.5,170.167 167.5,168.833 167.5,167.5C 166.167,167.5 164.833,167.5 163.5,167.5C 163.5,166.167 163.5,164.833 163.5,163.5C 164.833,163.5 166.167,163.5 167.5,163.5C 171.5,163.5 175.5,163.5 179.5,163.5C 179.5,162.167 179.5,160.833 179.5,159.5C 179.5,158.167 179.5,156.833 179.5,155.5C 179.5,151.5 179.5,147.5 179.5,143.5C 178.167,143.5 176.833,143.5 175.5,143.5C 175.5,142.167 175.5,140.833 175.5,139.5C 172.833,139.5 170.167,139.5 167.5,139.5C 167.5,138.167 167.5,136.833 167.5,135.5C 168.833,135.5 170.167,135.5 171.5,135.5C 171.5,128.833 171.5,122.167 171.5,115.5C 174.167,115.5 176.833,115.5 179.5,115.5C 179.5,112.833 179.5,110.167 179.5,107.5C 178.167,107.5 176.833,107.5 175.5,107.5C 175.5,106.167 175.5,104.833 175.5,103.5C 174.167,103.5 172.833,103.5 171.5,103.5C 171.5,98.1667 171.5,92.8333 171.5,87.5C 170.167,87.5 168.833,87.5 167.5,87.5C 167.5,83.5 167.5,79.5 167.5,75.5C 166.167,75.5 164.833,75.5 163.5,75.5C 163.5,72.8333 163.5,70.1667 163.5,67.5C 164.833,67.5 166.167,67.5 167.5,67.5C 167.5,68.8333 167.5,70.1667 167.5,71.5C 170.167,71.5 172.833,71.5 175.5,71.5C 175.5,70.1667 175.5,68.8333 175.5,67.5C 176.833,67.5 178.167,67.5 179.5,67.5C 179.5,66.1667 179.5,64.8333 179.5,63.5 Z"/></g>
<g><path style="opacity:1" fill="#f8a400" d="M 87.5,59.5 C 87.5,63.5 87.5,67.5 87.5,71.5C 86.1667,71.5 84.8333,71.5 83.5,71.5C 83.5,70.1667 83.5,68.8333 83.5,67.5C 82.1667,67.5 80.8333,67.5 79.5,67.5C 79.5,71.5 79.5,75.5 79.5,79.5C 78.1667,79.5 76.8333,79.5 75.5,79.5C 75.5,78.1667 75.5,76.8333 75.5,75.5C 75.5,71.5 75.5,67.5 75.5,63.5C 78.1667,63.5 80.8333,63.5 83.5,63.5C 83.5,62.1667 83.5,60.8333 83.5,59.5C 84.8333,59.5 86.1667,59.5 87.5,59.5 Z"/></g>
<g><path style="opacity:1" fill="#f3cd00" d="M 119.5,63.5 C 120.833,63.5 122.167,63.5 123.5,63.5C 123.5,64.8333 123.5,66.1667 123.5,67.5C 122.167,67.5 120.833,67.5 119.5,67.5C 119.5,66.1667 119.5,64.8333 119.5,63.5 Z"/></g>
<g><path style="opacity:1" fill="#fbee01" d="M 223.5,67.5 C 226.167,67.5 228.833,67.5 231.5,67.5C 231.5,70.1667 231.5,72.8333 231.5,75.5C 230.167,75.5 228.833,75.5 227.5,75.5C 227.5,76.8333 227.5,78.1667 227.5,79.5C 224.833,79.5 222.167,79.5 219.5,79.5C 219.5,76.8333 219.5,74.1667 219.5,71.5C 220.833,71.5 222.167,71.5 223.5,71.5C 223.5,70.1667 223.5,68.8333 223.5,67.5 Z"/></g>
<g><path style="opacity:1" fill="#150a13" d="M 107.5,71.5 C 110.167,71.5 112.833,71.5 115.5,71.5C 115.5,72.8333 115.5,74.1667 115.5,75.5C 127.5,75.5 139.5,75.5 151.5,75.5C 151.5,76.8333 151.5,78.1667 151.5,79.5C 152.833,79.5 154.167,79.5 155.5,79.5C 155.5,80.8333 155.5,82.1667 155.5,83.5C 156.833,83.5 158.167,83.5 159.5,83.5C 159.5,92.8333 159.5,102.167 159.5,111.5C 158.167,111.5 156.833,111.5 155.5,111.5C 155.5,119.5 155.5,127.5 155.5,135.5C 154.167,135.5 152.833,135.5 151.5,135.5C 151.5,143.5 151.5,151.5 151.5,159.5C 150.167,159.5 148.833,159.5 147.5,159.5C 147.5,160.833 147.5,162.167 147.5,163.5C 146.167,163.5 144.833,163.5 143.5,163.5C 143.5,164.833 143.5,166.167 143.5,167.5C 140.833,167.5 138.167,167.5 135.5,167.5C 135.5,168.833 135.5,170.167 135.5,171.5C 134.167,171.5 132.833,171.5 131.5,171.5C 131.5,172.833 131.5,174.167 131.5,175.5C 130.167,175.5 128.833,175.5 127.5,175.5C 127.5,178.167 127.5,180.833 127.5,183.5C 124.833,183.5 122.167,183.5 119.5,183.5C 119.5,182.167 119.5,180.833 119.5,179.5C 118.167,179.5 116.833,179.5 115.5,179.5C 115.5,175.5 115.5,171.5 115.5,167.5C 114.167,167.5 112.833,167.5 111.5,167.5C 111.5,164.833 111.5,162.167 111.5,159.5C 110.167,159.5 108.833,159.5 107.5,159.5C 107.5,158.167 107.5,156.833 107.5,155.5C 106.167,155.5 104.833,155.5 103.5,155.5C 103.5,154.167 103.5,152.833 103.5,151.5C 102.167,151.5 100.833,151.5 99.5,151.5C 99.5,144.833 99.5,138.167 99.5,131.5C 100.833,131.5 102.167,131.5 103.5,131.5C 103.5,130.167 103.5,128.833 103.5,127.5C 104.833,127.5 106.167,127.5 107.5,127.5C 107.5,124.833 107.5,122.167 107.5,119.5C 106.167,119.5 104.833,119.5 103.5,119.5C 103.5,114.167 103.5,108.833 103.5,103.5C 102.167,103.5 100.833,103.5 99.5,103.5C 99.5,95.5 99.5,87.5 99.5,79.5C 100.833,79.5 102.167,79.5 103.5,79.5C 103.5,78.1667 103.5,76.8333 103.5,75.5C 104.833,75.5 106.167,75.5 107.5,75.5C 107.5,74.1667 107.5,72.8333 107.5,71.5 Z"/></g>
<g><path style="opacity:1" fill="#271324" d="M -0.5,71.5 C 0.833333,71.5 2.16667,71.5 3.5,71.5C 3.5,72.8333 3.5,74.1667 3.5,75.5C 3.5,76.8333 3.5,78.1667 3.5,79.5C 3.5,82.1667 3.5,84.8333 3.5,87.5C 4.83333,87.5 6.16667,87.5 7.5,87.5C 7.5,90.1667 7.5,92.8333 7.5,95.5C 8.83333,95.5 10.1667,95.5 11.5,95.5C 11.5,100.833 11.5,106.167 11.5,111.5C 12.8333,111.5 14.1667,111.5 15.5,111.5C 15.5,119.5 15.5,127.5 15.5,135.5C 12.8333,135.5 10.1667,135.5 7.5,135.5C 7.5,134.167 7.5,132.833 7.5,131.5C 4.83333,131.5 2.16667,131.5 -0.5,131.5C -0.5,111.5 -0.5,91.5 -0.5,71.5 Z"/></g>
<g><path style="opacity:1" fill="#fafafa" d="M 11.5,71.5 C 11.5,72.8333 11.5,74.1667 11.5,75.5C 12.8333,75.5 14.1667,75.5 15.5,75.5C 15.5,76.8333 15.5,78.1667 15.5,79.5C 14.1667,79.5 12.8333,79.5 11.5,79.5C 11.5,80.8333 11.5,82.1667 11.5,83.5C 10.1667,83.5 8.83333,83.5 7.5,83.5C 7.5,82.1667 7.5,80.8333 7.5,79.5C 6.16667,79.5 4.83333,79.5 3.5,79.5C 3.5,78.1667 3.5,76.8333 3.5,75.5C 4.83333,75.5 6.16667,75.5 7.5,75.5C 7.5,74.1667 7.5,72.8333 7.5,71.5C 8.83333,71.5 10.1667,71.5 11.5,71.5 Z"/></g>
<g><path style="opacity:1" fill="#251122" d="M 115.5,79.5 C 122.167,79.5 128.833,79.5 135.5,79.5C 135.5,80.8333 135.5,82.1667 135.5,83.5C 138.167,83.5 140.833,83.5 143.5,83.5C 143.5,84.8333 143.5,86.1667 143.5,87.5C 146.167,87.5 148.833,87.5 151.5,87.5C 151.5,90.1667 151.5,92.8333 151.5,95.5C 152.833,95.5 154.167,95.5 155.5,95.5C 155.5,96.8333 155.5,98.1667 155.5,99.5C 154.167,99.5 152.833,99.5 151.5,99.5C 151.5,102.167 151.5,104.833 151.5,107.5C 150.167,107.5 148.833,107.5 147.5,107.5C 147.5,108.833 147.5,110.167 147.5,111.5C 148.833,111.5 150.167,111.5 151.5,111.5C 151.5,115.5 151.5,119.5 151.5,123.5C 150.167,123.5 148.833,123.5 147.5,123.5C 147.5,128.833 147.5,134.167 147.5,139.5C 146.167,139.5 144.833,139.5 143.5,139.5C 143.5,143.5 143.5,147.5 143.5,151.5C 142.167,151.5 140.833,151.5 139.5,151.5C 139.5,152.833 139.5,154.167 139.5,155.5C 138.167,155.5 136.833,155.5 135.5,155.5C 135.5,156.833 135.5,158.167 135.5,159.5C 134.167,159.5 132.833,159.5 131.5,159.5C 131.5,160.833 131.5,162.167 131.5,163.5C 130.167,163.5 128.833,163.5 127.5,163.5C 127.5,164.833 127.5,166.167 127.5,167.5C 124.833,167.5 122.167,167.5 119.5,167.5C 119.5,166.167 119.5,164.833 119.5,163.5C 118.167,163.5 116.833,163.5 115.5,163.5C 115.5,160.833 115.5,158.167 115.5,155.5C 114.167,155.5 112.833,155.5 111.5,155.5C 111.5,154.167 111.5,152.833 111.5,151.5C 110.167,151.5 108.833,151.5 107.5,151.5C 107.5,146.167 107.5,140.833 107.5,135.5C 108.833,135.5 110.167,135.5 111.5,135.5C 111.5,132.833 111.5,130.167 111.5,127.5C 112.833,127.5 114.167,127.5 115.5,127.5C 115.5,120.833 115.5,114.167 115.5,107.5C 114.167,107.5 112.833,107.5 111.5,107.5C 111.5,104.833 111.5,102.167 111.5,99.5C 110.167,99.5 108.833,99.5 107.5,99.5C 107.5,94.1667 107.5,88.8333 107.5,83.5C 110.167,83.5 112.833,83.5 115.5,83.5C 115.5,82.1667 115.5,80.8333 115.5,79.5 Z"/></g>
<g><path style="opacity:1" fill="#150b13" d="M 3.5,79.5 C 4.83333,79.5 6.16667,79.5 7.5,79.5C 7.5,80.8333 7.5,82.1667 7.5,83.5C 8.83333,83.5 10.1667,83.5 11.5,83.5C 11.5,82.1667 11.5,80.8333 11.5,79.5C 12.8333,79.5 14.1667,79.5 15.5,79.5C 15.5,80.8333 15.5,82.1667 15.5,83.5C 16.8333,83.5 18.1667,83.5 19.5,83.5C 19.5,91.5 19.5,99.5 19.5,107.5C 20.8333,107.5 22.1667,107.5 23.5,107.5C 23.5,119.5 23.5,131.5 23.5,143.5C 24.8333,143.5 26.1667,143.5 27.5,143.5C 27.5,144.833 27.5,146.167 27.5,147.5C 28.8333,147.5 30.1667,147.5 31.5,147.5C 31.5,148.833 31.5,150.167 31.5,151.5C 31.5,152.833 31.5,154.167 31.5,155.5C 28.8333,155.5 26.1667,155.5 23.5,155.5C 23.5,154.167 23.5,152.833 23.5,151.5C 22.1667,151.5 20.8333,151.5 19.5,151.5C 19.5,150.167 19.5,148.833 19.5,147.5C 18.1667,147.5 16.8333,147.5 15.5,147.5C 15.5,146.167 15.5,144.833 15.5,143.5C 12.8333,143.5 10.1667,143.5 7.5,143.5C 7.5,144.833 7.5,146.167 7.5,147.5C 6.16667,147.5 4.83333,147.5 3.5,147.5C 3.5,150.167 3.5,152.833 3.5,155.5C 2.16667,155.5 0.833333,155.5 -0.5,155.5C -0.5,147.5 -0.5,139.5 -0.5,131.5C 2.16667,131.5 4.83333,131.5 7.5,131.5C 7.5,132.833 7.5,134.167 7.5,135.5C 10.1667,135.5 12.8333,135.5 15.5,135.5C 15.5,127.5 15.5,119.5 15.5,111.5C 14.1667,111.5 12.8333,111.5 11.5,111.5C 11.5,106.167 11.5,100.833 11.5,95.5C 10.1667,95.5 8.83333,95.5 7.5,95.5C 7.5,92.8333 7.5,90.1667 7.5,87.5C 6.16667,87.5 4.83333,87.5 3.5,87.5C 3.5,84.8333 3.5,82.1667 3.5,79.5 Z"/></g>
<g><path style="opacity:1" fill="#f8cd00" d="M 43.5,87.5 C 43.5,88.8333 43.5,90.1667 43.5,91.5C 44.8333,91.5 46.1667,91.5 47.5,91.5C 47.5,92.8333 47.5,94.1667 47.5,95.5C 48.8333,95.5 50.1667,95.5 51.5,95.5C 51.5,96.8333 51.5,98.1667 51.5,99.5C 52.8333,99.5 54.1667,99.5 55.5,99.5C 55.5,100.833 55.5,102.167 55.5,103.5C 56.8333,103.5 58.1667,103.5 59.5,103.5C 59.5,104.833 59.5,106.167 59.5,107.5C 60.8333,107.5 62.1667,107.5 63.5,107.5C 63.5,108.833 63.5,110.167 63.5,111.5C 64.8333,111.5 66.1667,111.5 67.5,111.5C 67.5,112.833 67.5,114.167 67.5,115.5C 68.8333,115.5 70.1667,115.5 71.5,115.5C 71.5,116.833 71.5,118.167 71.5,119.5C 72.8333,119.5 74.1667,119.5 75.5,119.5C 75.5,120.833 75.5,122.167 75.5,123.5C 76.8333,123.5 78.1667,123.5 79.5,123.5C 79.5,124.833 79.5,126.167 79.5,127.5C 78.1667,127.5 76.8333,127.5 75.5,127.5C 75.5,128.833 75.5,130.167 75.5,131.5C 78.1667,131.5 80.8333,131.5 83.5,131.5C 83.5,132.833 83.5,134.167 83.5,135.5C 84.8333,135.5 86.1667,135.5 87.5,135.5C 87.5,139.5 87.5,143.5 87.5,147.5C 88.8333,147.5 90.1667,147.5 91.5,147.5C 91.5,150.167 91.5,152.833 91.5,155.5C 92.8333,155.5 94.1667,155.5 95.5,155.5C 95.5,158.167 95.5,160.833 95.5,163.5C 96.8333,163.5 98.1667,163.5 99.5,163.5C 99.5,164.833 99.5,166.167 99.5,167.5C 100.833,167.5 102.167,167.5 103.5,167.5C 103.5,168.833 103.5,170.167 103.5,171.5C 102.167,171.5 100.833,171.5 99.5,171.5C 99.5,174.167 99.5,176.833 99.5,179.5C 98.1667,179.5 96.8333,179.5 95.5,179.5C 95.5,182.167 95.5,184.833 95.5,187.5C 96.8333,187.5 98.1667,187.5 99.5,187.5C 99.5,188.833 99.5,190.167 99.5,191.5C 102.167,191.5 104.833,191.5 107.5,191.5C 107.5,192.833 107.5,194.167 107.5,195.5C 110.167,195.5 112.833,195.5 115.5,195.5C 115.5,202.167 115.5,208.833 115.5,215.5C 114.167,215.5 112.833,215.5 111.5,215.5C 111.5,214.167 111.5,212.833 111.5,211.5C 110.167,211.5 108.833,211.5 107.5,211.5C 107.5,212.833 107.5,214.167 107.5,215.5C 106.167,215.5 104.833,215.5 103.5,215.5C 103.5,216.833 103.5,218.167 103.5,219.5C 100.833,219.5 98.1667,219.5 95.5,219.5C 95.5,220.833 95.5,222.167 95.5,223.5C 94.1667,223.5 92.8333,223.5 91.5,223.5C 91.5,224.833 91.5,226.167 91.5,227.5C 90.1667,227.5 88.8333,227.5 87.5,227.5C 87.5,226.167 87.5,224.833 87.5,223.5C 86.1667,223.5 84.8333,223.5 83.5,223.5C 83.5,222.167 83.5,220.833 83.5,219.5C 82.1667,219.5 80.8333,219.5 79.5,219.5C 79.5,218.167 79.5,216.833 79.5,215.5C 78.1667,215.5 76.8333,215.5 75.5,215.5C 75.5,214.167 75.5,212.833 75.5,211.5C 74.1667,211.5 72.8333,211.5 71.5,211.5C 71.5,210.167 71.5,208.833 71.5,207.5C 70.1667,207.5 68.8333,207.5 67.5,207.5C 67.5,206.167 67.5,204.833 67.5,203.5C 66.1667,203.5 64.8333,203.5 63.5,203.5C 63.5,202.167 63.5,200.833 63.5,199.5C 67.5,199.5 71.5,199.5 75.5,199.5C 75.5,200.833 75.5,202.167 75.5,203.5C 78.1667,203.5 80.8333,203.5 83.5,203.5C 83.5,198.167 83.5,192.833 83.5,187.5C 84.8333,187.5 86.1667,187.5 87.5,187.5C 87.5,183.5 87.5,179.5 87.5,175.5C 84.8333,175.5 82.1667,175.5 79.5,175.5C 79.5,174.167 79.5,172.833 79.5,171.5C 78.1667,171.5 76.8333,171.5 75.5,171.5C 75.5,168.833 75.5,166.167 75.5,163.5C 74.1667,163.5 72.8333,163.5 71.5,163.5C 71.5,162.167 71.5,160.833 71.5,159.5C 70.1667,159.5 68.8333,159.5 67.5,159.5C 67.5,158.167 67.5,156.833 67.5,155.5C 66.1667,155.5 64.8333,155.5 63.5,155.5C 63.5,154.167 63.5,152.833 63.5,151.5C 60.8333,151.5 58.1667,151.5 55.5,151.5C 55.5,148.833 55.5,146.167 55.5,143.5C 52.8333,143.5 50.1667,143.5 47.5,143.5C 47.5,142.167 47.5,140.833 47.5,139.5C 46.1667,139.5 44.8333,139.5 43.5,139.5C 43.5,138.167 43.5,136.833 43.5,135.5C 42.1667,135.5 40.8333,135.5 39.5,135.5C 39.5,132.833 39.5,130.167 39.5,127.5C 36.8333,127.5 34.1667,127.5 31.5,127.5C 31.5,115.5 31.5,103.5 31.5,91.5C 32.8333,91.5 34.1667,91.5 35.5,91.5C 35.5,88.8333 35.5,86.1667 35.5,83.5C 38.1667,83.5 40.8333,83.5 43.5,83.5C 43.5,84.8333 43.5,86.1667 43.5,87.5 Z"/></g>
<g><path style="opacity:1" fill="#2f172c" d="M 119.5,87.5 C 126.167,87.5 132.833,87.5 139.5,87.5C 139.5,88.8333 139.5,90.1667 139.5,91.5C 140.833,91.5 142.167,91.5 143.5,91.5C 143.5,98.1667 143.5,104.833 143.5,111.5C 142.167,111.5 140.833,111.5 139.5,111.5C 139.5,120.833 139.5,130.167 139.5,139.5C 138.167,139.5 136.833,139.5 135.5,139.5C 135.5,142.167 135.5,144.833 135.5,147.5C 134.167,147.5 132.833,147.5 131.5,147.5C 131.5,148.833 131.5,150.167 131.5,151.5C 130.167,151.5 128.833,151.5 127.5,151.5C 127.5,152.833 127.5,154.167 127.5,155.5C 124.833,155.5 122.167,155.5 119.5,155.5C 119.5,154.167 119.5,152.833 119.5,151.5C 118.167,151.5 116.833,151.5 115.5,151.5C 115.5,144.833 115.5,138.167 115.5,131.5C 116.833,131.5 118.167,131.5 119.5,131.5C 119.5,128.833 119.5,126.167 119.5,123.5C 120.833,123.5 122.167,123.5 123.5,123.5C 123.5,116.833 123.5,110.167 123.5,103.5C 122.167,103.5 120.833,103.5 119.5,103.5C 119.5,98.1667 119.5,92.8333 119.5,87.5 Z"/></g>
<g><path style="opacity:1" fill="#f1ca00" d="M 87.5,87.5 C 88.8333,87.5 90.1667,87.5 91.5,87.5C 91.5,88.8333 91.5,90.1667 91.5,91.5C 90.1667,91.5 88.8333,91.5 87.5,91.5C 87.5,90.1667 87.5,88.8333 87.5,87.5 Z"/></g>
<g><path style="opacity:1" fill="#3f1e3a" d="M 127.5,95.5 C 130.167,95.5 132.833,95.5 135.5,95.5C 135.5,96.8333 135.5,98.1667 135.5,99.5C 136.833,99.5 138.167,99.5 139.5,99.5C 139.5,102.167 139.5,104.833 139.5,107.5C 138.167,107.5 136.833,107.5 135.5,107.5C 135.5,115.5 135.5,123.5 135.5,131.5C 134.167,131.5 132.833,131.5 131.5,131.5C 131.5,134.167 131.5,136.833 131.5,139.5C 128.833,139.5 126.167,139.5 123.5,139.5C 123.5,135.5 123.5,131.5 123.5,127.5C 124.833,127.5 126.167,127.5 127.5,127.5C 127.5,116.833 127.5,106.167 127.5,95.5 Z"/></g>
<g><path style="opacity:1" fill="#f6a200" d="M 211.5,95.5 C 212.833,95.5 214.167,95.5 215.5,95.5C 215.5,98.1667 215.5,100.833 215.5,103.5C 212.833,103.5 210.167,103.5 207.5,103.5C 207.5,107.5 207.5,111.5 207.5,115.5C 206.167,115.5 204.833,115.5 203.5,115.5C 203.5,116.833 203.5,118.167 203.5,119.5C 202.167,119.5 200.833,119.5 199.5,119.5C 199.5,122.167 199.5,124.833 199.5,127.5C 202.167,127.5 204.833,127.5 207.5,127.5C 207.5,128.833 207.5,130.167 207.5,131.5C 208.833,131.5 210.167,131.5 211.5,131.5C 211.5,132.833 211.5,134.167 211.5,135.5C 212.833,135.5 214.167,135.5 215.5,135.5C 215.5,136.833 215.5,138.167 215.5,139.5C 216.833,139.5 218.167,139.5 219.5,139.5C 219.5,142.167 219.5,144.833 219.5,147.5C 218.167,147.5 216.833,147.5 215.5,147.5C 215.5,146.167 215.5,144.833 215.5,143.5C 214.167,143.5 212.833,143.5 211.5,143.5C 211.5,142.167 211.5,140.833 211.5,139.5C 210.167,139.5 208.833,139.5 207.5,139.5C 207.5,138.167 207.5,136.833 207.5,135.5C 204.833,135.5 202.167,135.5 199.5,135.5C 199.5,134.167 199.5,132.833 199.5,131.5C 198.167,131.5 196.833,131.5 195.5,131.5C 195.5,126.167 195.5,120.833 195.5,115.5C 196.833,115.5 198.167,115.5 199.5,115.5C 199.5,111.5 199.5,107.5 199.5,103.5C 200.833,103.5 202.167,103.5 203.5,103.5C 203.5,102.167 203.5,100.833 203.5,99.5C 206.167,99.5 208.833,99.5 211.5,99.5C 211.5,98.1667 211.5,96.8333 211.5,95.5 Z"/></g>
<g><path style="opacity:1" fill="#f8f8f8" d="M 243.5,99.5 C 244.833,99.5 246.167,99.5 247.5,99.5C 247.5,100.833 247.5,102.167 247.5,103.5C 248.833,103.5 250.167,103.5 251.5,103.5C 251.5,104.833 251.5,106.167 251.5,107.5C 250.167,107.5 248.833,107.5 247.5,107.5C 247.5,108.833 247.5,110.167 247.5,111.5C 246.167,111.5 244.833,111.5 243.5,111.5C 243.5,110.167 243.5,108.833 243.5,107.5C 242.167,107.5 240.833,107.5 239.5,107.5C 239.5,106.167 239.5,104.833 239.5,103.5C 240.833,103.5 242.167,103.5 243.5,103.5C 243.5,102.167 243.5,100.833 243.5,99.5 Z"/></g>
<g><path style="opacity:1" fill="#f6a500" d="M 219.5,115.5 C 218.167,115.5 216.833,115.5 215.5,115.5C 215.5,118.167 215.5,120.833 215.5,123.5C 216.833,123.5 218.167,123.5 219.5,123.5C 219.5,124.833 219.5,126.167 219.5,127.5C 220.833,127.5 222.167,127.5 223.5,127.5C 223.5,128.833 223.5,130.167 223.5,131.5C 224.833,131.5 226.167,131.5 227.5,131.5C 227.5,134.167 227.5,136.833 227.5,139.5C 226.167,139.5 224.833,139.5 223.5,139.5C 223.5,138.167 223.5,136.833 223.5,135.5C 222.167,135.5 220.833,135.5 219.5,135.5C 219.5,134.167 219.5,132.833 219.5,131.5C 218.167,131.5 216.833,131.5 215.5,131.5C 215.5,130.167 215.5,128.833 215.5,127.5C 214.167,127.5 212.833,127.5 211.5,127.5C 211.5,122.167 211.5,116.833 211.5,111.5C 214.167,111.5 216.833,111.5 219.5,111.5C 219.5,112.833 219.5,114.167 219.5,115.5 Z"/></g>
<g><path style="opacity:1" fill="#f7cd00" d="M 219.5,115.5 C 220.833,115.5 222.167,115.5 223.5,115.5C 223.5,118.167 223.5,120.833 223.5,123.5C 224.833,123.5 226.167,123.5 227.5,123.5C 227.5,124.833 227.5,126.167 227.5,127.5C 228.833,127.5 230.167,127.5 231.5,127.5C 231.5,131.5 231.5,135.5 231.5,139.5C 230.167,139.5 228.833,139.5 227.5,139.5C 227.5,136.833 227.5,134.167 227.5,131.5C 226.167,131.5 224.833,131.5 223.5,131.5C 223.5,130.167 223.5,128.833 223.5,127.5C 222.167,127.5 220.833,127.5 219.5,127.5C 219.5,126.167 219.5,124.833 219.5,123.5C 218.167,123.5 216.833,123.5 215.5,123.5C 215.5,120.833 215.5,118.167 215.5,115.5C 216.833,115.5 218.167,115.5 219.5,115.5 Z"/></g>
<g><path style="opacity:1" fill="#f4ea01" d="M 87.5,115.5 C 88.8333,115.5 90.1667,115.5 91.5,115.5C 91.5,116.833 91.5,118.167 91.5,119.5C 92.8333,119.5 94.1667,119.5 95.5,119.5C 95.5,120.833 95.5,122.167 95.5,123.5C 92.8333,123.5 90.1667,123.5 87.5,123.5C 87.5,120.833 87.5,118.167 87.5,115.5 Z"/></g>
<g><path style="opacity:1" fill="#f7a400" d="M 71.5,131.5 C 71.5,132.833 71.5,134.167 71.5,135.5C 72.8333,135.5 74.1667,135.5 75.5,135.5C 75.5,136.833 75.5,138.167 75.5,139.5C 70.1667,139.5 64.8333,139.5 59.5,139.5C 59.5,138.167 59.5,136.833 59.5,135.5C 62.1667,135.5 64.8333,135.5 67.5,135.5C 67.5,134.167 67.5,132.833 67.5,131.5C 68.8333,131.5 70.1667,131.5 71.5,131.5 Z"/></g>
<g><path style="opacity:1" fill="#0f0a00" d="M 71.5,131.5 C 72.8333,131.5 74.1667,131.5 75.5,131.5C 75.5,132.833 75.5,134.167 75.5,135.5C 74.1667,135.5 72.8333,135.5 71.5,135.5C 71.5,134.167 71.5,132.833 71.5,131.5 Z"/></g>
<g><path style="opacity:1" fill="#f8a300" d="M 167.5,139.5 C 170.167,139.5 172.833,139.5 175.5,139.5C 175.5,140.833 175.5,142.167 175.5,143.5C 176.833,143.5 178.167,143.5 179.5,143.5C 179.5,147.5 179.5,151.5 179.5,155.5C 178.167,155.5 176.833,155.5 175.5,155.5C 175.5,152.833 175.5,150.167 175.5,147.5C 174.167,147.5 172.833,147.5 171.5,147.5C 171.5,146.167 171.5,144.833 171.5,143.5C 170.167,143.5 168.833,143.5 167.5,143.5C 167.5,142.167 167.5,140.833 167.5,139.5 Z"/></g>
<g><path style="opacity:1" fill="#f4ae00" d="M 167.5,143.5 C 167.5,146.167 167.5,148.833 167.5,151.5C 166.167,151.5 164.833,151.5 163.5,151.5C 163.5,150.167 163.5,148.833 163.5,147.5C 162.167,147.5 160.833,147.5 159.5,147.5C 159.5,146.167 159.5,144.833 159.5,143.5C 162.167,143.5 164.833,143.5 167.5,143.5 Z"/></g>
<g><path style="opacity:1" fill="#f7f7f7" d="M 27.5,147.5 C 28.8333,147.5 30.1667,147.5 31.5,147.5C 31.5,148.833 31.5,150.167 31.5,151.5C 30.1667,151.5 28.8333,151.5 27.5,151.5C 27.5,150.167 27.5,148.833 27.5,147.5 Z"/></g>
<g><path style="opacity:1" fill="#fbee01" d="M 11.5,155.5 C 12.8333,155.5 14.1667,155.5 15.5,155.5C 15.5,156.833 15.5,158.167 15.5,159.5C 16.8333,159.5 18.1667,159.5 19.5,159.5C 19.5,162.167 19.5,164.833 19.5,167.5C 20.8333,167.5 22.1667,167.5 23.5,167.5C 23.5,172.833 23.5,178.167 23.5,183.5C 22.1667,183.5 20.8333,183.5 19.5,183.5C 19.5,184.833 19.5,186.167 19.5,187.5C 18.1667,187.5 16.8333,187.5 15.5,187.5C 15.5,186.167 15.5,184.833 15.5,183.5C 14.1667,183.5 12.8333,183.5 11.5,183.5C 11.5,174.167 11.5,164.833 11.5,155.5 Z"/></g>
<g><path style="opacity:1" fill="#fdfdfd" d="M 239.5,155.5 C 239.5,156.833 239.5,158.167 239.5,159.5C 238.167,159.5 236.833,159.5 235.5,159.5C 235.5,158.167 235.5,156.833 235.5,155.5C 236.833,155.5 238.167,155.5 239.5,155.5 Z"/></g>
<g><path style="opacity:1" fill="#f8a700" d="M 179.5,159.5 C 179.5,160.833 179.5,162.167 179.5,163.5C 175.5,163.5 171.5,163.5 167.5,163.5C 167.5,162.167 167.5,160.833 167.5,159.5C 171.5,159.5 175.5,159.5 179.5,159.5 Z"/></g>
<g><path style="opacity:1" fill="#f79e00" d="M 31.5,127.5 C 34.1667,127.5 36.8333,127.5 39.5,127.5C 39.5,130.167 39.5,132.833 39.5,135.5C 40.8333,135.5 42.1667,135.5 43.5,135.5C 43.5,136.833 43.5,138.167 43.5,139.5C 44.8333,139.5 46.1667,139.5 47.5,139.5C 47.5,140.833 47.5,142.167 47.5,143.5C 50.1667,143.5 52.8333,143.5 55.5,143.5C 55.5,146.167 55.5,148.833 55.5,151.5C 58.1667,151.5 60.8333,151.5 63.5,151.5C 63.5,152.833 63.5,154.167 63.5,155.5C 64.8333,155.5 66.1667,155.5 67.5,155.5C 67.5,156.833 67.5,158.167 67.5,159.5C 68.8333,159.5 70.1667,159.5 71.5,159.5C 71.5,160.833 71.5,162.167 71.5,163.5C 72.8333,163.5 74.1667,163.5 75.5,163.5C 75.5,166.167 75.5,168.833 75.5,171.5C 76.8333,171.5 78.1667,171.5 79.5,171.5C 79.5,172.833 79.5,174.167 79.5,175.5C 82.1667,175.5 84.8333,175.5 87.5,175.5C 87.5,179.5 87.5,183.5 87.5,187.5C 86.1667,187.5 84.8333,187.5 83.5,187.5C 83.5,184.833 83.5,182.167 83.5,179.5C 80.8333,179.5 78.1667,179.5 75.5,179.5C 75.5,178.167 75.5,176.833 75.5,175.5C 74.1667,175.5 72.8333,175.5 71.5,175.5C 71.5,172.833 71.5,170.167 71.5,167.5C 70.1667,167.5 68.8333,167.5 67.5,167.5C 67.5,166.167 67.5,164.833 67.5,163.5C 66.1667,163.5 64.8333,163.5 63.5,163.5C 63.5,162.167 63.5,160.833 63.5,159.5C 62.1667,159.5 60.8333,159.5 59.5,159.5C 59.5,158.167 59.5,156.833 59.5,155.5C 56.8333,155.5 54.1667,155.5 51.5,155.5C 51.5,152.833 51.5,150.167 51.5,147.5C 48.8333,147.5 46.1667,147.5 43.5,147.5C 43.5,146.167 43.5,144.833 43.5,143.5C 42.1667,143.5 40.8333,143.5 39.5,143.5C 39.5,142.167 39.5,140.833 39.5,139.5C 38.1667,139.5 36.8333,139.5 35.5,139.5C 35.5,136.833 35.5,134.167 35.5,131.5C 34.1667,131.5 32.8333,131.5 31.5,131.5C 31.5,130.167 31.5,128.833 31.5,127.5 Z"/></g>
<g><path style="opacity:1" fill="#160b13" d="M -0.5,167.5 C 0.833333,167.5 2.16667,167.5 3.5,167.5C 3.5,176.833 3.5,186.167 3.5,195.5C 4.83333,195.5 6.16667,195.5 7.5,195.5C 7.5,196.833 7.5,198.167 7.5,199.5C 6.16667,199.5 4.83333,199.5 3.5,199.5C 3.5,200.833 3.5,202.167 3.5,203.5C 4.83333,203.5 6.16667,203.5 7.5,203.5C 7.5,204.833 7.5,206.167 7.5,207.5C 8.83333,207.5 10.1667,207.5 11.5,207.5C 11.5,216.833 11.5,226.167 11.5,235.5C 12.8333,235.5 14.1667,235.5 15.5,235.5C 15.5,236.833 15.5,238.167 15.5,239.5C 18.1667,239.5 20.8333,239.5 23.5,239.5C 23.5,240.833 23.5,242.167 23.5,243.5C 32.8333,243.5 42.1667,243.5 51.5,243.5C 51.5,244.833 51.5,246.167 51.5,247.5C 59.5,247.5 67.5,247.5 75.5,247.5C 75.5,246.167 75.5,244.833 75.5,243.5C 80.8333,243.5 86.1667,243.5 91.5,243.5C 91.5,242.167 91.5,240.833 91.5,239.5C 94.1667,239.5 96.8333,239.5 99.5,239.5C 99.5,238.167 99.5,236.833 99.5,235.5C 103.5,235.5 107.5,235.5 111.5,235.5C 111.5,234.167 111.5,232.833 111.5,231.5C 114.167,231.5 116.833,231.5 119.5,231.5C 120.833,231.5 122.167,231.5 123.5,231.5C 126.167,231.5 128.833,231.5 131.5,231.5C 131.5,232.833 131.5,234.167 131.5,235.5C 132.833,235.5 134.167,235.5 135.5,235.5C 135.5,236.833 135.5,238.167 135.5,239.5C 138.167,239.5 140.833,239.5 143.5,239.5C 143.5,240.833 143.5,242.167 143.5,243.5C 154.167,243.5 164.833,243.5 175.5,243.5C 175.5,244.833 175.5,246.167 175.5,247.5C 182.167,247.5 188.833,247.5 195.5,247.5C 195.5,248.833 195.5,250.167 195.5,251.5C 198.167,251.5 200.833,251.5 203.5,251.5C 203.5,250.167 203.5,248.833 203.5,247.5C 212.833,247.5 222.167,247.5 231.5,247.5C 232.833,247.5 234.167,247.5 235.5,247.5C 235.5,248.833 235.5,250.167 235.5,251.5C 235.5,252.833 235.5,254.167 235.5,255.5C 208.833,255.5 182.167,255.5 155.5,255.5C 155.5,254.167 155.5,252.833 155.5,251.5C 148.833,251.5 142.167,251.5 135.5,251.5C 135.5,250.167 135.5,248.833 135.5,247.5C 132.833,247.5 130.167,247.5 127.5,247.5C 127.5,246.167 127.5,244.833 127.5,243.5C 122.167,243.5 116.833,243.5 111.5,243.5C 111.5,244.833 111.5,246.167 111.5,247.5C 108.833,247.5 106.167,247.5 103.5,247.5C 103.5,248.833 103.5,250.167 103.5,251.5C 98.1667,251.5 92.8333,251.5 87.5,251.5C 87.5,252.833 87.5,254.167 87.5,255.5C 72.8333,255.5 58.1667,255.5 43.5,255.5C 43.5,254.167 43.5,252.833 43.5,251.5C 35.5,251.5 27.5,251.5 19.5,251.5C 19.5,250.167 19.5,248.833 19.5,247.5C 15.5,247.5 11.5,247.5 7.5,247.5C 7.5,246.167 7.5,244.833 7.5,243.5C 6.16667,243.5 4.83333,243.5 3.5,243.5C 3.5,234.167 3.5,224.833 3.5,215.5C 2.16667,215.5 0.833333,215.5 -0.5,215.5C -0.5,199.5 -0.5,183.5 -0.5,167.5 Z"/></g>
<g><path style="opacity:1" fill="#f5a100" d="M 43.5,159.5 C 46.1667,159.5 48.8333,159.5 51.5,159.5C 51.5,160.833 51.5,162.167 51.5,163.5C 52.8333,163.5 54.1667,163.5 55.5,163.5C 55.5,164.833 55.5,166.167 55.5,167.5C 56.8333,167.5 58.1667,167.5 59.5,167.5C 59.5,171.5 59.5,175.5 59.5,179.5C 58.1667,179.5 56.8333,179.5 55.5,179.5C 55.5,176.833 55.5,174.167 55.5,171.5C 54.1667,171.5 52.8333,171.5 51.5,171.5C 51.5,170.167 51.5,168.833 51.5,167.5C 50.1667,167.5 48.8333,167.5 47.5,167.5C 47.5,166.167 47.5,164.833 47.5,163.5C 46.1667,163.5 44.8333,163.5 43.5,163.5C 43.5,162.167 43.5,160.833 43.5,159.5 Z"/></g>
<g><path style="opacity:1" fill="#feef01" d="M 163.5,167.5 C 164.833,167.5 166.167,167.5 167.5,167.5C 167.5,168.833 167.5,170.167 167.5,171.5C 168.833,171.5 170.167,171.5 171.5,171.5C 171.5,172.833 171.5,174.167 171.5,175.5C 172.833,175.5 174.167,175.5 175.5,175.5C 175.5,176.833 175.5,178.167 175.5,179.5C 176.833,179.5 178.167,179.5 179.5,179.5C 179.5,180.833 179.5,182.167 179.5,183.5C 180.833,183.5 182.167,183.5 183.5,183.5C 183.5,184.833 183.5,186.167 183.5,187.5C 183.5,188.833 183.5,190.167 183.5,191.5C 178.167,191.5 172.833,191.5 167.5,191.5C 167.5,192.833 167.5,194.167 167.5,195.5C 166.167,195.5 164.833,195.5 163.5,195.5C 163.5,196.833 163.5,198.167 163.5,199.5C 175.5,199.5 187.5,199.5 199.5,199.5C 199.5,200.833 199.5,202.167 199.5,203.5C 200.833,203.5 202.167,203.5 203.5,203.5C 203.5,204.833 203.5,206.167 203.5,207.5C 204.833,207.5 206.167,207.5 207.5,207.5C 207.5,208.833 207.5,210.167 207.5,211.5C 206.167,211.5 204.833,211.5 203.5,211.5C 203.5,212.833 203.5,214.167 203.5,215.5C 202.167,215.5 200.833,215.5 199.5,215.5C 199.5,216.833 199.5,218.167 199.5,219.5C 198.167,219.5 196.833,219.5 195.5,219.5C 195.5,220.833 195.5,222.167 195.5,223.5C 192.833,223.5 190.167,223.5 187.5,223.5C 187.5,224.833 187.5,226.167 187.5,227.5C 184.833,227.5 182.167,227.5 179.5,227.5C 179.5,226.167 179.5,224.833 179.5,223.5C 178.167,223.5 176.833,223.5 175.5,223.5C 175.5,222.167 175.5,220.833 175.5,219.5C 174.167,219.5 172.833,219.5 171.5,219.5C 171.5,218.167 171.5,216.833 171.5,215.5C 170.167,215.5 168.833,215.5 167.5,215.5C 167.5,214.167 167.5,212.833 167.5,211.5C 166.167,211.5 164.833,211.5 163.5,211.5C 163.5,210.167 163.5,208.833 163.5,207.5C 162.167,207.5 160.833,207.5 159.5,207.5C 159.5,206.167 159.5,204.833 159.5,203.5C 158.167,203.5 156.833,203.5 155.5,203.5C 155.5,202.167 155.5,200.833 155.5,199.5C 154.167,199.5 152.833,199.5 151.5,199.5C 151.5,198.167 151.5,196.833 151.5,195.5C 150.167,195.5 148.833,195.5 147.5,195.5C 147.5,194.167 147.5,192.833 147.5,191.5C 146.167,191.5 144.833,191.5 143.5,191.5C 143.5,190.167 143.5,188.833 143.5,187.5C 142.167,187.5 140.833,187.5 139.5,187.5C 139.5,183.5 139.5,179.5 139.5,175.5C 142.167,175.5 144.833,175.5 147.5,175.5C 147.5,174.167 147.5,172.833 147.5,171.5C 148.833,171.5 150.167,171.5 151.5,171.5C 151.5,170.167 151.5,168.833 151.5,167.5C 155.5,167.5 159.5,167.5 163.5,167.5 Z"/></g>
<g><path style="opacity:1" fill="#f7a400" d="M 103.5,171.5 C 104.833,171.5 106.167,171.5 107.5,171.5C 107.5,172.833 107.5,174.167 107.5,175.5C 106.167,175.5 104.833,175.5 103.5,175.5C 103.5,178.167 103.5,180.833 103.5,183.5C 104.833,183.5 106.167,183.5 107.5,183.5C 107.5,184.833 107.5,186.167 107.5,187.5C 108.833,187.5 110.167,187.5 111.5,187.5C 111.5,188.833 111.5,190.167 111.5,191.5C 112.833,191.5 114.167,191.5 115.5,191.5C 115.5,192.833 115.5,194.167 115.5,195.5C 112.833,195.5 110.167,195.5 107.5,195.5C 107.5,194.167 107.5,192.833 107.5,191.5C 104.833,191.5 102.167,191.5 99.5,191.5C 99.5,190.167 99.5,188.833 99.5,187.5C 98.1667,187.5 96.8333,187.5 95.5,187.5C 95.5,184.833 95.5,182.167 95.5,179.5C 96.8333,179.5 98.1667,179.5 99.5,179.5C 99.5,176.833 99.5,174.167 99.5,171.5C 100.833,171.5 102.167,171.5 103.5,171.5 Z"/></g>
<g><path style="opacity:1" fill="#f7cd00" d="M 223.5,227.5 C 223.5,226.167 223.5,224.833 223.5,223.5C 222.167,223.5 220.833,223.5 219.5,223.5C 219.5,222.167 219.5,220.833 219.5,219.5C 218.167,219.5 216.833,219.5 215.5,219.5C 215.5,218.167 215.5,216.833 215.5,215.5C 215.5,211.5 215.5,207.5 215.5,203.5C 211.5,203.5 207.5,203.5 203.5,203.5C 202.167,203.5 200.833,203.5 199.5,203.5C 199.5,202.167 199.5,200.833 199.5,199.5C 203.5,199.5 207.5,199.5 211.5,199.5C 211.5,198.167 211.5,196.833 211.5,195.5C 212.833,195.5 214.167,195.5 215.5,195.5C 215.5,194.167 215.5,192.833 215.5,191.5C 216.833,191.5 218.167,191.5 219.5,191.5C 219.5,186.167 219.5,180.833 219.5,175.5C 223.5,175.5 227.5,175.5 231.5,175.5C 231.5,192.833 231.5,210.167 231.5,227.5C 228.833,227.5 226.167,227.5 223.5,227.5 Z"/></g>
<g><path style="opacity:1" fill="#f68700" d="M 79.5,187.5 C 79.5,188.833 79.5,190.167 79.5,191.5C 78.1667,191.5 76.8333,191.5 75.5,191.5C 74.1667,191.5 72.8333,191.5 71.5,191.5C 71.5,190.167 71.5,188.833 71.5,187.5C 70.1667,187.5 68.8333,187.5 67.5,187.5C 67.5,184.833 67.5,182.167 67.5,179.5C 68.8333,179.5 70.1667,179.5 71.5,179.5C 71.5,180.833 71.5,182.167 71.5,183.5C 74.1667,183.5 76.8333,183.5 79.5,183.5C 79.5,184.833 79.5,186.167 79.5,187.5 Z"/></g>
<g><path style="opacity:1" fill="#fdef01" d="M 63.5,199.5 C 63.5,200.833 63.5,202.167 63.5,203.5C 64.8333,203.5 66.1667,203.5 67.5,203.5C 67.5,204.833 67.5,206.167 67.5,207.5C 68.8333,207.5 70.1667,207.5 71.5,207.5C 71.5,208.833 71.5,210.167 71.5,211.5C 72.8333,211.5 74.1667,211.5 75.5,211.5C 75.5,212.833 75.5,214.167 75.5,215.5C 76.8333,215.5 78.1667,215.5 79.5,215.5C 79.5,216.833 79.5,218.167 79.5,219.5C 80.8333,219.5 82.1667,219.5 83.5,219.5C 83.5,220.833 83.5,222.167 83.5,223.5C 84.8333,223.5 86.1667,223.5 87.5,223.5C 87.5,224.833 87.5,226.167 87.5,227.5C 70.1667,227.5 52.8333,227.5 35.5,227.5C 35.5,226.167 35.5,224.833 35.5,223.5C 34.1667,223.5 32.8333,223.5 31.5,223.5C 31.5,222.167 31.5,220.833 31.5,219.5C 30.1667,219.5 28.8333,219.5 27.5,219.5C 27.5,218.167 27.5,216.833 27.5,215.5C 26.1667,215.5 24.8333,215.5 23.5,215.5C 23.5,210.167 23.5,204.833 23.5,199.5C 24.8333,199.5 26.1667,199.5 27.5,199.5C 27.5,196.833 27.5,194.167 27.5,191.5C 28.8333,191.5 30.1667,191.5 31.5,191.5C 31.5,188.833 31.5,186.167 31.5,183.5C 32.8333,183.5 34.1667,183.5 35.5,183.5C 35.5,186.167 35.5,188.833 35.5,191.5C 36.8333,191.5 38.1667,191.5 39.5,191.5C 39.5,192.833 39.5,194.167 39.5,195.5C 40.8333,195.5 42.1667,195.5 43.5,195.5C 43.5,196.833 43.5,198.167 43.5,199.5C 50.1667,199.5 56.8333,199.5 63.5,199.5 Z"/></g>
<g><path style="opacity:1" fill="#f8a500" d="M 79.5,187.5 C 80.8333,187.5 82.1667,187.5 83.5,187.5C 83.5,192.833 83.5,198.167 83.5,203.5C 80.8333,203.5 78.1667,203.5 75.5,203.5C 75.5,202.167 75.5,200.833 75.5,199.5C 76.8333,199.5 78.1667,199.5 79.5,199.5C 79.5,198.167 79.5,196.833 79.5,195.5C 78.1667,195.5 76.8333,195.5 75.5,195.5C 75.5,194.167 75.5,192.833 75.5,191.5C 76.8333,191.5 78.1667,191.5 79.5,191.5C 79.5,190.167 79.5,188.833 79.5,187.5 Z"/></g>
<g><path style="opacity:1" fill="#f8c900" d="M 139.5,187.5 C 140.833,187.5 142.167,187.5 143.5,187.5C 143.5,188.833 143.5,190.167 143.5,191.5C 144.833,191.5 146.167,191.5 147.5,191.5C 147.5,192.833 147.5,194.167 147.5,195.5C 148.833,195.5 150.167,195.5 151.5,195.5C 151.5,196.833 151.5,198.167 151.5,199.5C 152.833,199.5 154.167,199.5 155.5,199.5C 155.5,200.833 155.5,202.167 155.5,203.5C 156.833,203.5 158.167,203.5 159.5,203.5C 159.5,204.833 159.5,206.167 159.5,207.5C 160.833,207.5 162.167,207.5 163.5,207.5C 163.5,208.833 163.5,210.167 163.5,211.5C 164.833,211.5 166.167,211.5 167.5,211.5C 167.5,212.833 167.5,214.167 167.5,215.5C 168.833,215.5 170.167,215.5 171.5,215.5C 171.5,216.833 171.5,218.167 171.5,219.5C 172.833,219.5 174.167,219.5 175.5,219.5C 175.5,220.833 175.5,222.167 175.5,223.5C 176.833,223.5 178.167,223.5 179.5,223.5C 179.5,224.833 179.5,226.167 179.5,227.5C 166.167,227.5 152.833,227.5 139.5,227.5C 139.5,222.167 139.5,216.833 139.5,211.5C 140.833,211.5 142.167,211.5 143.5,211.5C 143.5,212.833 143.5,214.167 143.5,215.5C 143.5,216.833 143.5,218.167 143.5,219.5C 144.833,219.5 146.167,219.5 147.5,219.5C 147.5,220.833 147.5,222.167 147.5,223.5C 150.167,223.5 152.833,223.5 155.5,223.5C 155.5,218.167 155.5,212.833 155.5,207.5C 154.167,207.5 152.833,207.5 151.5,207.5C 150.167,207.5 148.833,207.5 147.5,207.5C 147.5,206.167 147.5,204.833 147.5,203.5C 146.167,203.5 144.833,203.5 143.5,203.5C 143.5,202.167 143.5,200.833 143.5,199.5C 142.167,199.5 140.833,199.5 139.5,199.5C 139.5,195.5 139.5,191.5 139.5,187.5 Z"/></g>
<g><path style="opacity:1" fill="#f9f9f9" d="M 7.5,195.5 C 8.83333,195.5 10.1667,195.5 11.5,195.5C 11.5,196.833 11.5,198.167 11.5,199.5C 12.8333,199.5 14.1667,199.5 15.5,199.5C 15.5,200.833 15.5,202.167 15.5,203.5C 14.1667,203.5 12.8333,203.5 11.5,203.5C 11.5,204.833 11.5,206.167 11.5,207.5C 10.1667,207.5 8.83333,207.5 7.5,207.5C 7.5,206.167 7.5,204.833 7.5,203.5C 6.16667,203.5 4.83333,203.5 3.5,203.5C 3.5,202.167 3.5,200.833 3.5,199.5C 4.83333,199.5 6.16667,199.5 7.5,199.5C 7.5,198.167 7.5,196.833 7.5,195.5 Z"/></g>
<g><path style="opacity:1" fill="#f6cd00" d="M 123.5,195.5 C 126.167,195.5 128.833,195.5 131.5,195.5C 131.5,199.5 131.5,203.5 131.5,207.5C 130.167,207.5 128.833,207.5 127.5,207.5C 127.5,206.167 127.5,204.833 127.5,203.5C 126.167,203.5 124.833,203.5 123.5,203.5C 123.5,200.833 123.5,198.167 123.5,195.5 Z"/></g>
<g><path style="opacity:1" fill="#f8a500" d="M 203.5,203.5 C 207.5,203.5 211.5,203.5 215.5,203.5C 215.5,207.5 215.5,211.5 215.5,215.5C 214.167,215.5 212.833,215.5 211.5,215.5C 211.5,212.833 211.5,210.167 211.5,207.5C 210.167,207.5 208.833,207.5 207.5,207.5C 206.167,207.5 204.833,207.5 203.5,207.5C 203.5,206.167 203.5,204.833 203.5,203.5 Z"/></g>
<g><path style="opacity:1" fill="#f8a000" d="M 151.5,207.5 C 152.833,207.5 154.167,207.5 155.5,207.5C 155.5,212.833 155.5,218.167 155.5,223.5C 152.833,223.5 150.167,223.5 147.5,223.5C 147.5,222.167 147.5,220.833 147.5,219.5C 146.167,219.5 144.833,219.5 143.5,219.5C 143.5,218.167 143.5,216.833 143.5,215.5C 146.167,215.5 148.833,215.5 151.5,215.5C 151.5,212.833 151.5,210.167 151.5,207.5 Z"/></g>
<g><path style="opacity:1" fill="#f6a400" d="M 115.5,215.5 C 115.5,216.833 115.5,218.167 115.5,219.5C 112.833,219.5 110.167,219.5 107.5,219.5C 107.5,220.833 107.5,222.167 107.5,223.5C 104.833,223.5 102.167,223.5 99.5,223.5C 99.5,224.833 99.5,226.167 99.5,227.5C 96.8333,227.5 94.1667,227.5 91.5,227.5C 91.5,226.167 91.5,224.833 91.5,223.5C 92.8333,223.5 94.1667,223.5 95.5,223.5C 95.5,222.167 95.5,220.833 95.5,219.5C 98.1667,219.5 100.833,219.5 103.5,219.5C 103.5,218.167 103.5,216.833 103.5,215.5C 104.833,215.5 106.167,215.5 107.5,215.5C 107.5,214.167 107.5,212.833 107.5,211.5C 108.833,211.5 110.167,211.5 111.5,211.5C 111.5,212.833 111.5,214.167 111.5,215.5C 112.833,215.5 114.167,215.5 115.5,215.5 Z"/></g>
<g><path style="opacity:1" fill="#f6cc00" d="M 23.5,215.5 C 24.8333,215.5 26.1667,215.5 27.5,215.5C 27.5,216.833 27.5,218.167 27.5,219.5C 28.8333,219.5 30.1667,219.5 31.5,219.5C 31.5,220.833 31.5,222.167 31.5,223.5C 32.8333,223.5 34.1667,223.5 35.5,223.5C 35.5,224.833 35.5,226.167 35.5,227.5C 31.5,227.5 27.5,227.5 23.5,227.5C 23.5,223.5 23.5,219.5 23.5,215.5 Z"/></g>
<g><path style="opacity:1" fill="#fbee01" d="M 211.5,215.5 C 212.833,215.5 214.167,215.5 215.5,215.5C 215.5,216.833 215.5,218.167 215.5,219.5C 216.833,219.5 218.167,219.5 219.5,219.5C 219.5,220.833 219.5,222.167 219.5,223.5C 220.833,223.5 222.167,223.5 223.5,223.5C 223.5,224.833 223.5,226.167 223.5,227.5C 220.833,227.5 218.167,227.5 215.5,227.5C 215.5,226.167 215.5,224.833 215.5,223.5C 214.167,223.5 212.833,223.5 211.5,223.5C 211.5,222.167 211.5,220.833 211.5,219.5C 210.167,219.5 208.833,219.5 207.5,219.5C 207.5,218.167 207.5,216.833 207.5,215.5C 208.833,215.5 210.167,215.5 211.5,215.5 Z"/></g>
<g><path style="opacity:1" fill="#261223" d="M -0.5,215.5 C 0.833333,215.5 2.16667,215.5 3.5,215.5C 3.5,224.833 3.5,234.167 3.5,243.5C 4.83333,243.5 6.16667,243.5 7.5,243.5C 7.5,244.833 7.5,246.167 7.5,247.5C 11.5,247.5 15.5,247.5 19.5,247.5C 19.5,248.833 19.5,250.167 19.5,251.5C 27.5,251.5 35.5,251.5 43.5,251.5C 43.5,252.833 43.5,254.167 43.5,255.5C 28.8333,255.5 14.1667,255.5 -0.5,255.5C -0.5,242.167 -0.5,228.833 -0.5,215.5 Z"/></g>
<g><path style="opacity:1" fill="#f1f1f1" d="M 123.5,231.5 C 122.167,231.5 120.833,231.5 119.5,231.5C 119.5,230.167 119.5,228.833 119.5,227.5C 120.833,227.5 122.167,227.5 123.5,227.5C 123.5,228.833 123.5,230.167 123.5,231.5 Z"/></g>
<g><path style="opacity:1" fill="#faea01" d="M 195.5,227.5 C 198.167,227.5 200.833,227.5 203.5,227.5C 203.5,230.167 203.5,232.833 203.5,235.5C 202.167,235.5 200.833,235.5 199.5,235.5C 199.5,236.833 199.5,238.167 199.5,239.5C 198.167,239.5 196.833,239.5 195.5,239.5C 195.5,240.833 195.5,242.167 195.5,243.5C 194.167,243.5 192.833,243.5 191.5,243.5C 191.5,239.5 191.5,235.5 191.5,231.5C 192.833,231.5 194.167,231.5 195.5,231.5C 195.5,230.167 195.5,228.833 195.5,227.5 Z"/></g>
<g><path style="opacity:1" fill="#f9f9f9" d="M 235.5,239.5 C 236.833,239.5 238.167,239.5 239.5,239.5C 239.232,241.099 239.566,242.432 240.5,243.5C 241.5,243.5 242.5,243.5 243.5,243.5C 243.5,244.833 243.5,246.167 243.5,247.5C 242.167,247.5 240.833,247.5 239.5,247.5C 239.5,248.833 239.5,250.167 239.5,251.5C 238.167,251.5 236.833,251.5 235.5,251.5C 235.5,250.167 235.5,248.833 235.5,247.5C 234.167,247.5 232.833,247.5 231.5,247.5C 231.5,246.167 231.5,244.833 231.5,243.5C 232.833,243.5 234.167,243.5 235.5,243.5C 235.5,242.167 235.5,240.833 235.5,239.5 Z"/></g>
<g><path style="opacity:1" fill="#271324" d="M 155.5,255.5 C 132.833,255.5 110.167,255.5 87.5,255.5C 87.5,254.167 87.5,252.833 87.5,251.5C 92.8333,251.5 98.1667,251.5 103.5,251.5C 103.5,250.167 103.5,248.833 103.5,247.5C 106.167,247.5 108.833,247.5 111.5,247.5C 111.5,246.167 111.5,244.833 111.5,243.5C 116.833,243.5 122.167,243.5 127.5,243.5C 127.5,244.833 127.5,246.167 127.5,247.5C 130.167,247.5 132.833,247.5 135.5,247.5C 135.5,248.833 135.5,250.167 135.5,251.5C 142.167,251.5 148.833,251.5 155.5,251.5C 155.5,252.833 155.5,254.167 155.5,255.5 Z"/></g>
</svg>
